<svg version="1.1" id="logo" class="logo logo-open" xmlns="http://www.w3.org/2000/svg" xmlns:xlink="http://www.w3.org/1999/xlink" x="0px" y="0px" viewBox="0 0 254.608 66.533" xml:space="preserve">
<g class="neos">
	<path d="M51.029,49.692c0,1.406-0.156,2.511-0.466,3.315c-0.193,0.458-0.635,0.753-0.963,1.127
		c-0.206,0.388-0.506,0.637-0.801,0.939c-0.037,0.02-0.042,0.063-0.077,0.087c-0.088,0.057-0.201,0.037-0.295,0.09
		c-0.657,0.539-1.259,1.152-2.377,1.139c0,0-2.585-1.162-5.497-2.494c-3.584-1.642-7.667-3.547-8.039-3.886
		c-0.668-0.62-1.005-1.425-1.005-2.423c0-1.018,0.337-1.834,1.005-2.452c0.672-0.619,1.697-0.924,3.08-0.924
		c0,0,7.039,4.109,7.104,2.886c0.009-0.184,0.296-0.039,0.383-0.127c-0.109-2.759-0.177-5.263-0.177-5.263V16.542
		c0-1.64,0.379-2.881,1.139-3.72c0.758-0.839,1.734-1.257,2.921-1.257c1.228,0,2.209,0.427,2.953,1.276
		c0.74,0.849,1.11,2.086,1.11,3.706L51.029,49.692z M34.542,20.371c0,1.016-0.337,1.835-1.007,2.45
		c-0.67,0.617-1.694,0.926-3.076,0.926c0,0-7.043-4.109-7.106-2.888c-0.009,0.186-0.296,0.039-0.383,0.125
		c0.109,2.761,0.173,5.265,0.173,5.265V51.41c0,1.64-0.379,2.875-1.139,3.722c-0.758,0.832-1.732,1.257-2.921,1.257
		c-1.226,0-2.211-0.425-2.953-1.274c-0.74-0.85-1.11-2.084-1.11-3.709V18.261c0-1.406,0.153-2.513,0.466-3.312
		c0.199-0.46,0.639-0.757,0.966-1.128c0.208-0.388,0.506-0.637,0.803-0.937c0.035-0.024,0.042-0.068,0.077-0.088
		c0.035-0.024,0.075,0.015,0.11-0.004c0.677-0.615,1.36-1.241,2.557-1.228c0,0,2.586,1.158,5.499,2.494
		c3.586,1.64,7.667,3.547,8.037,3.888C34.207,18.565,34.542,19.371,34.542,20.371 M66.242,57.663V8.873
		C66.242,3.971,62.288,0,57.411,0H8.829C3.952,0,0,3.971,0,8.873v48.79c0,4.899,3.952,8.869,8.829,8.869h48.582
		C62.286,66.535,66.242,62.562,66.242,57.663"/>
</g>
<g class="product">
	<path d="M97.113,17.736c0,0.313-0.118,0.587-0.353,0.822c-0.235,0.234-0.51,0.353-0.823,0.353h-2.996
		c-0.314,0-0.588-0.118-0.823-0.353c-0.235-0.235-0.353-0.509-0.353-0.822v-4.7c0-0.312,0.118-0.587,0.353-0.822
		s0.509-0.353,0.823-0.353h2.996c0.313,0,0.588,0.117,0.823,0.353s0.353,0.51,0.353,0.822V17.736z M96.995,55.215
		c0,0.313-0.118,0.587-0.353,0.822s-0.509,0.353-0.822,0.353H93c-0.314,0-0.587-0.117-0.823-0.353
		c-0.235-0.235-0.352-0.509-0.352-0.822V25.255c0-0.312,0.117-0.587,0.352-0.822c0.235-0.234,0.509-0.353,0.823-0.353h2.82
		c0.313,0,0.587,0.118,0.822,0.353c0.235,0.235,0.353,0.51,0.353,0.822V55.215z"/>
	<path d="M128.894,56.038c-0.235,0.235-0.509,0.353-0.822,0.353h-2.82c-0.314,0-0.587-0.116-0.822-0.352
		c-0.235-0.234-0.353-0.508-0.353-0.82V35.93c0-1.485-0.127-2.726-0.382-3.723c-0.255-0.996-0.646-1.788-1.175-2.374
		c-0.529-0.586-1.205-1.006-2.027-1.261c-0.822-0.253-1.783-0.381-2.878-0.381c-1.254,0-2.546,0.216-3.877,0.646
		c-1.332,0.43-2.683,0.977-4.053,1.642v24.739c0,0.312-0.118,0.586-0.353,0.82c-0.235,0.235-0.51,0.352-0.823,0.352h-2.878
		c-0.314,0-0.578-0.117-0.793-0.353c-0.216-0.235-0.323-0.509-0.323-0.822V25.255c0-0.312,0.107-0.587,0.323-0.822
		c0.215-0.234,0.479-0.353,0.793-0.353h2.938c0.313,0,0.577,0.12,0.793,0.358c0.215,0.238,0.323,0.518,0.323,0.835v1.134
		c1.645-0.912,3.172-1.597,4.582-2.054c1.41-0.456,2.996-0.685,4.758-0.685c3.563,0,6.158,1.058,7.784,3.173
		c1.625,2.114,2.438,5.131,2.438,9.047v19.327C129.246,55.529,129.129,55.802,128.894,56.038z"/>
	<path d="M141.994,17.736c0,0.313-0.117,0.587-0.353,0.822c-0.234,0.234-0.509,0.353-0.822,0.353h-2.996
		c-0.313,0-0.587-0.118-0.822-0.353c-0.235-0.235-0.353-0.509-0.353-0.822v-4.7c0-0.312,0.117-0.587,0.353-0.822
		s0.509-0.353,0.822-0.353h2.996c0.313,0,0.588,0.117,0.822,0.353c0.235,0.235,0.353,0.51,0.353,0.822V17.736z M141.876,55.215
		c0,0.313-0.117,0.587-0.353,0.822s-0.51,0.353-0.822,0.353h-2.82c-0.313,0-0.587-0.117-0.822-0.353
		c-0.234-0.235-0.353-0.509-0.353-0.822V25.255c0-0.312,0.118-0.587,0.353-0.822c0.235-0.234,0.509-0.353,0.822-0.353h2.82
		c0.312,0,0.587,0.118,0.822,0.353c0.235,0.235,0.353,0.51,0.353,0.822V55.215z"/>
	<path d="M165.492,56.507c-0.587,0.078-1.233,0.147-1.938,0.206s-1.332,0.088-1.88,0.088
		c-1.371,0-2.556-0.108-3.554-0.323c-0.999-0.215-1.821-0.616-2.468-1.204s-1.136-1.39-1.469-2.408s-0.499-2.33-0.499-3.937V28.427
		l-5.698-0.646c-0.744-0.078-1.116-0.431-1.116-1.058v-1.586c0-0.705,0.372-1.058,1.116-1.058h5.698v-5.757
		c0-0.665,0.353-1.058,1.058-1.175l3.055-0.47h0.176c0.235,0,0.44,0.088,0.617,0.264c0.176,0.177,0.265,0.422,0.265,0.734v6.403
		h6.344c0.313,0,0.588,0.118,0.823,0.353c0.234,0.235,0.353,0.51,0.353,0.822v1.998c0,0.313-0.118,0.587-0.353,0.822
		c-0.235,0.235-0.51,0.353-0.823,0.353h-6.344V48.88c0,1.603,0.234,2.618,0.705,3.048c0.47,0.43,1.292,0.645,2.467,0.645h3.29
		c0.822,0,1.233,0.279,1.233,0.835v2.088C166.549,56.05,166.197,56.388,165.492,56.507z"/>
	<path d="M176.77,17.736c0,0.313-0.117,0.587-0.353,0.822c-0.234,0.234-0.509,0.353-0.822,0.353h-2.996
		c-0.313,0-0.587-0.118-0.822-0.353c-0.235-0.235-0.353-0.509-0.353-0.822v-4.7c0-0.312,0.117-0.587,0.353-0.822
		s0.509-0.353,0.822-0.353h2.996c0.313,0,0.588,0.117,0.822,0.353c0.235,0.235,0.353,0.51,0.353,0.822V17.736z M176.653,55.215
		c0,0.313-0.117,0.587-0.353,0.822s-0.51,0.353-0.822,0.353h-2.82c-0.313,0-0.587-0.117-0.822-0.353
		c-0.234-0.235-0.353-0.509-0.353-0.822V25.255c0-0.312,0.118-0.587,0.353-0.822c0.235-0.234,0.509-0.353,0.822-0.353h2.82
		c0.312,0,0.587,0.118,0.822,0.353c0.235,0.235,0.353,0.51,0.353,0.822V55.215z"/>
	<path d="M208.581,56.038c-0.216,0.235-0.479,0.353-0.793,0.353h-2.938c-0.313,0-0.578-0.119-0.793-0.358
		c-0.216-0.238-0.323-0.517-0.323-0.835v-1.134c-1.645,0.913-3.172,1.598-4.582,2.054c-1.409,0.456-2.996,0.685-4.758,0.685
		c-3.564,0-6.159-1.058-7.784-3.172c-1.626-2.115-2.438-5.131-2.438-9.047V25.255c0-0.312,0.117-0.587,0.353-0.822
		c0.234-0.234,0.508-0.353,0.822-0.353h2.819c0.313,0,0.588,0.118,0.822,0.352c0.235,0.235,0.353,0.509,0.353,0.821V44.54
		c0,1.485,0.127,2.727,0.382,3.724s0.646,1.788,1.175,2.373c0.529,0.587,1.194,1.008,1.998,1.261
		c0.802,0.254,1.771,0.381,2.907,0.381c1.253,0,2.546-0.215,3.878-0.645c1.331-0.43,2.682-0.978,4.053-1.642V25.253
		c0-0.312,0.118-0.586,0.353-0.821c0.235-0.233,0.509-0.352,0.823-0.352h2.878c0.313,0,0.577,0.118,0.793,0.353
		c0.215,0.235,0.323,0.51,0.323,0.822v29.961C208.904,55.529,208.795,55.802,208.581,56.038z"/>
	<path d="M254.255,56.038c-0.235,0.235-0.51,0.353-0.822,0.353h-2.82c-0.313,0-0.587-0.117-0.822-0.353
		s-0.353-0.509-0.353-0.822V34.42c0-1.214-0.138-2.232-0.411-3.055c-0.274-0.823-0.646-1.469-1.116-1.938
		c-0.47-0.471-1.038-0.803-1.704-0.999c-0.666-0.195-1.371-0.294-2.114-0.294c-1.058,0-2.184,0.157-3.378,0.47
		c-1.195,0.314-2.36,0.686-3.495,1.116c0.353,1.293,0.528,2.82,0.528,4.582v20.914c0,0.313-0.099,0.587-0.294,0.822
		c-0.196,0.235-0.45,0.353-0.764,0.353h-3.113c-0.314,0-0.559-0.117-0.734-0.353s-0.265-0.509-0.265-0.822V34.301
		c0-1.292-0.088-2.339-0.264-3.143c-0.177-0.802-0.461-1.429-0.853-1.88c-0.392-0.449-0.872-0.754-1.438-0.91
		c-0.568-0.156-1.225-0.235-1.969-0.235c-1.058,0-2.203,0.226-3.437,0.676s-2.478,0.989-3.73,1.615v24.791
		c0,0.313-0.098,0.587-0.293,0.822c-0.197,0.235-0.451,0.353-0.765,0.353h-3.113c-0.313,0-0.558-0.117-0.734-0.353
		c-0.176-0.235-0.264-0.509-0.264-0.822V25.255c0-0.312,0.107-0.587,0.322-0.822c0.215-0.234,0.479-0.353,0.794-0.353h2.937
		c0.313,0,0.578,0.118,0.793,0.353c0.215,0.235,0.323,0.51,0.323,0.822v1.116c1.175-0.743,2.487-1.39,3.937-1.938
		c1.448-0.548,2.996-0.822,4.641-0.822c1.253,0,2.359,0.187,3.319,0.559c0.959,0.372,1.811,0.989,2.556,1.85
		c1.645-0.782,3.299-1.38,4.964-1.791c1.664-0.411,3.26-0.617,4.787-0.617c1.331,0,2.575,0.177,3.73,0.529
		c1.155,0.352,2.164,0.949,3.025,1.791c0.861,0.843,1.537,1.959,2.027,3.349c0.489,1.391,0.734,3.104,0.734,5.141v20.796
		C254.608,55.529,254.49,55.802,254.255,56.038z"/>
</g>

</svg>
