<svg version="1.1" id="Layer_1" xmlns="http://www.w3.org/2000/svg" xmlns:xlink="http://www.w3.org/1999/xlink" x="0px" y="0px" viewBox="0 0 255.819 144.754" style="enable-background:new 0 0 255.819 144.754;" xml:space="preserve">
<style type="text/css">
	.st0{fill:#97CED3;}
	.st1{fill:#B5D06C;}
	.st2{fill:#CCDD9A;}
	.st3{fill:#CFD0D0;}
</style>
<g>
	<g>
		<path class="st0" d="M53.236,32.387c0,0.917-0.102,1.637-0.304,2.161c-0.126,0.299-0.414,0.491-0.627,0.734
			c-0.134,0.253-0.33,0.415-0.522,0.612c-0.024,0.013-0.028,0.041-0.05,0.056c-0.058,0.037-0.131,0.024-0.192,0.059
			c-0.428,0.352-0.821,0.751-1.549,0.743c0,0-1.685-0.757-3.583-1.626c-2.336-1.07-4.997-2.312-5.239-2.533
			c-0.436-0.404-0.655-0.929-0.655-1.579c0-0.663,0.22-1.195,0.655-1.598c0.438-0.403,1.106-0.602,2.007-0.602
			c0,0,4.588,2.678,4.63,1.881c0.006-0.12,0.193-0.025,0.25-0.083c-0.071-1.798-0.115-3.43-0.115-3.43V10.781
			c0-1.069,0.247-1.878,0.743-2.425c0.494-0.547,1.13-0.819,1.904-0.819c0.8,0,1.44,0.278,1.924,0.831
			c0.482,0.553,0.723,1.359,0.723,2.415L53.236,32.387z M42.491,13.277c0,0.662-0.22,1.196-0.656,1.597
			c-0.437,0.402-1.104,0.603-2.005,0.603c0,0-4.59-2.678-4.631-1.882c-0.006,0.121-0.193,0.025-0.25,0.082
			c0.071,1.8,0.113,3.431,0.113,3.431v16.399c0,1.069-0.247,1.874-0.743,2.426c-0.494,0.542-1.129,0.819-1.904,0.819
			c-0.799,0-1.441-0.277-1.924-0.83c-0.482-0.554-0.723-1.358-0.723-2.418V11.902c0-0.917,0.1-1.638,0.304-2.158
			c0.13-0.3,0.416-0.493,0.63-0.735c0.136-0.253,0.33-0.415,0.523-0.611c0.023-0.016,0.028-0.044,0.05-0.058
			c0.023-0.016,0.049,0.01,0.072-0.002c0.442-0.401,0.887-0.809,1.667-0.8c0,0,1.686,0.755,3.584,1.626
			c2.337,1.069,4.997,2.312,5.238,2.534C42.272,12.1,42.491,12.625,42.491,13.277 M63.151,37.582V5.783
			C63.151,2.588,60.574,0,57.396,0H25.732c-3.178,0-5.754,2.588-5.754,5.783v31.799c0,3.193,2.576,5.781,5.754,5.781h31.664
			C60.573,43.364,63.151,40.775,63.151,37.582"/>
		<path class="st1" d="M101.391,24.017c-1.377,0-2.497-1.124-2.497-2.51c0-1.383,1.119-2.506,2.497-2.506
			c1.38,0,2.498,1.123,2.498,2.506C103.889,22.893,102.771,24.017,101.391,24.017 M109.501,9.889c0,0.668-0.221,1.202-0.66,1.605
			c-0.439,0.402-1.11,0.606-2.014,0.606c0,0-7.169-0.349-10.777,0c-1.019,0.1-1.449,0.879-1.491,1.679
			c-0.084,1.628-0.299,6.791-0.016,15.065c0.058,1.682,0.624,2.425,2.642,2.466c2.02,0.04,9.574,0,9.574,0
			c0.893,0,1.563,0.206,2.014,0.623c0.452,0.416,0.679,0.967,0.679,1.658c0,0.662-0.227,1.202-0.679,1.614
			c-0.451,0.418-1.123,0.626-2.014,0.626H92.362c-1.235,0-3.475-2.265-3.475-3.495V11.192c0.175-1.836,1.425-3.521,3.475-3.494
			h14.465c0.905,0,1.575,0.204,2.014,0.607C109.281,8.709,109.501,9.237,109.501,9.889 M120.715,37.582V5.783
			c0-3.195-2.576-5.783-5.755-5.783H83.297c-3.178,0-5.755,2.588-5.755,5.783v31.799c0,3.193,2.577,5.781,5.755,5.781h31.661
			C118.138,43.364,120.715,40.775,120.715,37.582"/>
		<path class="st2" d="M169.865,32.845c0,1.226-2.239,3.49-3.475,3.49h-5.256c-0.893,0-1.566-0.208-2.014-0.621
			c-0.455-0.415-0.679-0.955-0.679-1.62c0-0.687,0.226-1.241,0.679-1.655c0.449-0.415,1.122-0.623,2.014-0.623
			c0,0-0.569,0.04,1.449,0c2.019-0.042,1.571-0.785,1.625-2.469c0.286-8.271,0.073-13.435-0.012-15.062
			c-0.043-0.799-0.475-1.583-1.491-1.68c-2.557-0.242-2.709-0.2-3.147-0.605c-0.438-0.402-0.661-0.939-0.661-1.604
			c0-0.651,0.223-1.182,0.661-1.584c0.438-0.403,1.111-0.607,2.013-0.607h4.82c2.053-0.026,3.299,1.657,3.475,3.494V32.845z
			 M152.539,31.82c0.89,0,1.566,0.208,2.017,0.623c0.451,0.414,0.675,0.967,0.675,1.655c0,0.665-0.226,1.205-0.675,1.62
			c-0.451,0.414-1.125,0.621-2.017,0.621h-5.256c-1.236,0-3.476-2.264-3.476-3.49V11.703c0.175-1.837,1.424-3.521,3.476-3.494h4.818
			c0.903,0,1.574,0.203,2.013,0.607c0.442,0.402,0.662,0.931,0.662,1.584c0,0.665-0.221,1.201-0.662,1.604
			c-0.438,0.404-0.584,0.344-3.145,0.605c-1.019,0.106-1.449,0.881-1.49,1.68c-0.085,1.626-0.3,6.791-0.017,15.062
			c0.058,1.683-0.392,2.426,1.625,2.469C153.108,31.859,152.539,31.82,152.539,31.82 M178.277,37.582V5.783
			c0-3.195-2.575-5.783-5.757-5.783h-31.66c-3.179,0-5.757,2.588-5.757,5.783v31.799c0,3.193,2.576,5.781,5.757,5.781h31.66
			C175.702,43.364,178.277,40.775,178.277,37.582"/>
		<path class="st0" d="M225.638,33.009c0.019,1.305-0.721,2.014-1.662,2.498c-0.184,0.137-0.313,0.364-0.53,0.455
			c-0.518,0.208-1.233,0.307-2.145,0.307H206.89c-1.053,0-1.855-0.24-2.403-0.725c-0.552-0.485-0.827-1.129-0.827-1.935
			c0-0.775,0.274-1.415,0.816-1.912c0.545-0.498,1.35-0.747,2.414-0.747h9.23c0,0,1.511-0.089,3.237-0.026
			c0.061,0.001,0.119,0.008,0.178,0.008c0.018,0-0.007-0.036,0.014-0.036c0.791-0.041,1.729-0.551,1.73-1.574
			c0.006-3.279,0-3.165,0-3.165c0-0.903,0.199-1.575,0.598-2.017c0.404-0.438,0.93-0.66,1.591-0.66c0.645,0,1.172,0.222,1.571,0.66
			c0.401,0.442,0.6,1.113,0.6,2.017L225.638,33.009L225.638,33.009z M225.556,10.201c0,0.777-0.275,1.416-0.818,1.915
			c-0.544,0.497-1.349,0.745-2.41,0.745h-9.235c0,0-1.461,0.066-3.173,0.006c-0.05-0.001-0.1-0.007-0.15-0.01
			c-0.018,0.002,0.004,0.036-0.014,0.036c-0.788,0.042-1.822,0.573-1.822,1.597c0.006,3.068,0,3.164,0,3.164
			c0,0.905-0.199,1.577-0.597,2.016c-0.4,0.439-0.93,0.662-1.591,0.662c-0.648,0-1.17-0.223-1.567-0.662
			c-0.403-0.439-0.601-1.111-0.601-2.016v-6.851c0.088-1.596,0.863-2.25,1.832-2.649c0.133-0.083,0.214-0.244,0.359-0.307
			c0.275-0.109,0.753-0.113,1.143-0.163c0.028-0.002,0.044-0.023,0.077-0.025l0.011,0.012c0.318-0.038,0.526-0.13,0.914-0.13h14.412
			c1.05,0,1.852,0.241,2.402,0.727C225.278,8.752,225.556,9.398,225.556,10.201 M235.841,37.582V5.783
			c0-3.195-2.575-5.783-5.755-5.783h-31.66c-3.179,0-5.755,2.588-5.755,5.783v31.799c0,3.193,2.575,5.781,5.755,5.781h31.66
			C233.266,43.364,235.841,40.775,235.841,37.582"/>
	</g>
</g>
</svg>
