<svg id="Layer_1" data-name="Layer 1" xmlns="http://www.w3.org/2000/svg" viewBox="0 0 549.6 91.31"><title>neos-new-logo</title><path d="M73.89,0H.84A.85.85,0,0,0,0,.84V90.47a.85.85,0,0,0,.84.84H17.42a.85.85,0,0,0,.84-.84V6.82a.84.84,0,0,1,1.52-.5l3.64,4.9a17.4,17.4,0,0,0,14,7H69.56a3.49,3.49,0,0,1,3.49,3.49V90.47a.84.84,0,0,0,.84.84H90.47a.85.85,0,0,0,.84-.84v-73A17.42,17.42,0,0,0,73.89,0Z"/><path d="M379.41,0H323a17.42,17.42,0,0,0-17.42,17.42V73.89A17.42,17.42,0,0,0,323,91.31h56.46a17.41,17.41,0,0,0,17.42-17.42V17.42A17.41,17.41,0,0,0,379.41,0Zm-.84,69.56a3.48,3.48,0,0,1-3.48,3.49H327.27a3.48,3.48,0,0,1-3.48-3.49V6.82a.84.84,0,0,1,1.52-.5l3.64,4.9a17.4,17.4,0,0,0,14,7h32.15a3.48,3.48,0,0,1,3.48,3.49Z"/><path d="M226.65,54.78a17.41,17.41,0,0,0,17.42-17.42V17.42A17.42,17.42,0,0,0,226.65,0H170.19a17.42,17.42,0,0,0-17.43,17.42V73.89a17.42,17.42,0,0,0,17.42,17.42h73a.84.84,0,0,0,.78-1.16l-6.5-16.23a1.38,1.38,0,0,0-1.29-.87H174.51A3.48,3.48,0,0,1,171,69.56V54.78ZM171,43.34V21.75a3.48,3.48,0,0,1,3.48-3.49h47.82a3.48,3.48,0,0,1,3.48,3.49V33a3.48,3.48,0,0,1-3.48,3.48H190.17a17.44,17.44,0,0,0-14,7l-3.63,4.9A.84.84,0,0,1,171,48Z"/><path d="M532.18,36.52H480A3.48,3.48,0,0,1,476.55,33V6.82a.84.84,0,0,1,1.52-.5l3.64,4.9a17.43,17.43,0,0,0,14,7h43.9a1.39,1.39,0,0,0,1.29-.87l6.5-16.23A.84.84,0,0,0,546.61,0h-70.9a17.42,17.42,0,0,0-17.42,17.42V37.36a17.41,17.41,0,0,0,17.42,17.42h52.14a3.49,3.49,0,0,1,3.49,3.49V69.56a3.49,3.49,0,0,1-3.49,3.49H466.2a1.38,1.38,0,0,0-1.29.87l-6.46,16.23a.85.85,0,0,0,.78,1.16h72.95A17.42,17.42,0,0,0,549.6,73.89v-20A17.42,17.42,0,0,0,532.18,36.52Z"/></svg>