<svg xmlns="http://www.w3.org/2000/svg" viewBox="0 0 287.92 243.55"><defs><style>.cls-1{fill:none;stroke:#242E45;stroke-miterlimit:10;}</style></defs><title>Asset 1</title><g id="Layer_2" data-name="Layer 2"><g id="Layer_1-2" data-name="Layer 1"><polyline class="cls-1" points="88.78 38.8 99.82 45.17 110.85 51.55 121.89 45.17 132.92 38.8 132.92 26.06 132.92 13.32 121.89 6.95 110.85 0.58 99.82 6.95 88.78 13.32 88.78 26.06 99.82 32.43"/><line class="cls-1" x1="99.82" y1="19.69" x2="88.78" y2="13.32"/><polyline class="cls-1" points="110.85 51.55 110.85 38.8 110.85 26.06 121.89 19.69 132.92 13.32"/><polyline class="cls-1" points="121.89 6.95 99.82 19.69 99.82 45.17"/><line class="cls-1" x1="121.89" y1="19.69" x2="121.89" y2="45.18"/><polyline class="cls-1" points="0.5 38.8 11.54 45.17 22.57 51.55 33.6 45.17 44.64 38.8 44.64 26.06 44.64 13.32 33.6 6.95 22.57 0.58 11.54 6.95 0.5 13.32 0.5 26.06 11.54 32.43"/><line class="cls-1" x1="11.54" y1="19.69" x2="0.5" y2="13.32"/><polyline class="cls-1" points="22.57 51.55 22.57 38.8 22.57 26.06 33.6 19.69 44.64 13.32"/><polyline class="cls-1" points="33.6 6.95 11.54 19.69 11.54 45.17"/><line class="cls-1" x1="33.61" y1="19.69" x2="33.61" y2="45.18"/><polyline class="cls-1" points="110.85 77.03 99.82 83.4 88.78 89.77 77.75 83.4 66.71 77.03 66.71 64.29 66.71 51.55 77.75 45.17 88.78 38.8 99.82 45.17 110.85 51.55 110.85 64.29 99.82 70.66"/><line class="cls-1" x1="99.82" y1="57.92" x2="110.85" y2="51.55"/><polyline class="cls-1" points="88.78 89.77 88.78 77.03 88.78 64.29 77.75 57.92 66.71 51.55"/><polyline class="cls-1" points="77.75 45.17 99.82 57.92 99.82 83.4"/><line class="cls-1" x1="77.75" y1="57.92" x2="77.75" y2="83.4"/><polyline class="cls-1" points="177.06 38.8 188.1 45.17 199.13 51.55 210.17 45.17 221.2 38.8 221.2 26.06 221.2 13.32 210.17 6.95 199.13 0.58 188.1 6.95 177.06 13.32 177.06 26.06 188.1 32.43"/><line class="cls-1" x1="188.1" y1="19.69" x2="177.06" y2="13.32"/><polyline class="cls-1" points="199.13 51.55 199.13 38.8 199.13 26.06 210.17 19.69 221.2 13.32"/><polyline class="cls-1" points="210.17 6.95 188.1 19.69 188.1 45.17"/><line class="cls-1" x1="210.17" y1="19.69" x2="210.17" y2="45.18"/><polyline class="cls-1" points="177.06 89.77 166.03 83.4 154.99 77.03 154.99 64.29 154.99 51.55 166.03 45.18 177.06 38.8 188.1 45.18 199.13 51.55 199.13 64.29 188.1 70.66"/><line class="cls-1" x1="188.1" y1="57.92" x2="199.13" y2="51.55"/><polyline class="cls-1" points="177.06 89.77 177.06 77.03 177.06 64.29 166.03 57.92 154.99 51.55"/><polyline class="cls-1" points="166.03 45.17 188.1 57.92 188.1 83.4"/><line class="cls-1" x1="166.03" y1="57.92" x2="166.03" y2="83.4"/><polyline class="cls-1" points="265.35 89.77 254.31 83.4 243.28 77.03 243.28 64.29 243.28 51.55 254.31 45.18 265.35 38.8 276.38 45.18 287.42 51.55 287.42 64.29 276.38 70.66"/><line class="cls-1" x1="276.38" y1="57.92" x2="287.42" y2="51.55"/><polyline class="cls-1" points="265.35 89.77 265.35 77.03 265.35 64.29 254.31 57.92 243.28 51.55"/><polyline class="cls-1" points="254.31 45.17 276.38 57.92 276.38 83.4"/><line class="cls-1" x1="254.31" y1="57.92" x2="254.31" y2="83.4"/><polyline class="cls-1" points="177.06 26.06 177.06 13.32 166.03 6.95 154.99 0.58"/><polyline class="cls-1" points="177.06 13.32 166.03 19.69 154.99 26.06 143.96 19.69 132.92 13.32"/><polyline class="cls-1" points="154.99 51.55 154.99 38.8 143.96 32.43"/><polyline class="cls-1" points="143.96 19.69 143.96 45.18 154.99 51.55 166.03 45.18 177.06 38.8"/><polyline class="cls-1" points="166.03 45.17 166.03 19.69 143.96 6.95 132.92 13.32 132.92 26.06 132.92 38.8"/><line class="cls-1" x1="177.06" y1="26.06" x2="154.99" y2="38.8"/><polyline class="cls-1" points="199.13 64.29 199.13 51.55 210.17 45.18 221.2 38.8"/><polyline class="cls-1" points="199.13 51.55 210.17 57.92 221.2 64.29 232.24 57.92 243.28 51.55"/><polyline class="cls-1" points="221.2 89.77 221.2 77.03 232.24 70.66"/><polyline class="cls-1" points="232.24 57.92 232.24 83.4 221.2 89.77 210.17 83.4 199.13 77.03"/><polyline class="cls-1" points="210.17 83.4 210.17 57.92 232.24 45.17 243.27 51.55 243.27 64.29 243.27 77.03"/><line class="cls-1" x1="199.13" y1="64.29" x2="221.2" y2="77.03"/><polyline class="cls-1" points="22.57 64.29 22.57 51.55 33.6 45.18 44.64 38.8"/><polyline class="cls-1" points="22.57 51.55 33.6 57.92 44.64 64.29 55.68 57.92 66.71 51.55"/><polyline class="cls-1" points="44.64 89.77 44.64 77.03 55.68 70.66"/><polyline class="cls-1" points="55.68 57.92 55.68 83.4 44.64 89.77 33.61 83.4 22.57 77.03"/><polyline class="cls-1" points="33.6 83.4 33.6 57.92 55.68 45.17 66.71 51.55 66.71 64.29 66.71 77.03"/><line class="cls-1" x1="22.57" y1="64.29" x2="44.64" y2="77.03"/><polyline class="cls-1" points="110.85 64.29 110.85 51.55 121.89 45.18 132.92 38.8"/><polyline class="cls-1" points="110.85 51.55 121.89 57.92 132.92 64.29 143.96 57.92 154.99 51.55"/><polyline class="cls-1" points="132.92 89.77 132.92 77.03 143.96 70.66"/><polyline class="cls-1" points="143.96 57.92 143.96 83.4 132.92 89.77 121.89 83.4 110.85 77.03"/><polyline class="cls-1" points="121.89 83.4 121.89 57.92 143.96 45.17 154.99 51.55 154.99 64.29 154.99 77.03"/><line class="cls-1" x1="110.85" y1="64.29" x2="132.92" y2="77.03"/><polyline class="cls-1" points="265.35 13.32 254.31 19.69 243.28 26.06 232.24 19.69 221.2 13.32"/><polyline class="cls-1" points="243.27 51.55 243.27 38.8 232.24 32.43"/><polyline class="cls-1" points="232.24 19.69 232.24 45.18 243.27 51.55 254.31 45.18 265.34 38.8"/><polyline class="cls-1" points="254.31 45.17 254.31 19.69 232.24 6.95 221.21 13.32 221.21 26.06 221.21 38.8"/><polyline class="cls-1" points="243.27 38.8 265.34 26.06 265.34 13.32 254.31 6.95 243.27 0.58"/><polyline class="cls-1" points="88.78 26.06 88.78 13.32 77.75 6.95 66.71 0.58"/><polyline class="cls-1" points="88.78 13.32 77.75 19.69 66.71 26.06 55.68 19.69 44.64 13.32"/><polyline class="cls-1" points="66.71 51.55 66.71 38.8 55.68 32.43"/><polyline class="cls-1" points="55.68 19.69 55.68 45.18 66.71 51.55 77.75 45.18 88.78 38.8"/><polyline class="cls-1" points="77.75 45.17 77.75 19.69 55.68 6.95 44.64 13.32 44.64 26.06 44.64 38.8"/><line class="cls-1" x1="88.78" y1="26.06" x2="66.71" y2="38.8"/><polyline class="cls-1" points="88.78 115.26 99.82 121.63 110.85 128 121.89 121.63 132.92 115.26 132.92 102.52 132.92 89.77 121.89 83.4 110.85 77.03 99.82 83.4 88.78 89.77 88.78 102.52 99.82 108.89"/><line class="cls-1" x1="99.82" y1="96.14" x2="88.78" y2="89.77"/><polyline class="cls-1" points="110.85 128 110.85 115.26 110.85 102.52 121.89 96.14 132.92 89.77"/><polyline class="cls-1" points="121.89 83.4 99.82 96.14 99.82 121.63"/><line class="cls-1" x1="121.89" y1="96.14" x2="121.89" y2="121.63"/><polyline class="cls-1" points="0.5 115.26 11.54 121.63 22.57 128 33.6 121.63 44.64 115.26 44.64 102.52 44.64 89.77 33.6 83.4 22.57 77.03 11.54 83.4 0.5 89.77 0.5 102.52 11.54 108.89"/><line class="cls-1" x1="11.54" y1="96.14" x2="0.5" y2="89.77"/><polyline class="cls-1" points="22.57 128 22.57 115.26 22.57 102.52 33.6 96.14 44.64 89.77"/><polyline class="cls-1" points="33.6 83.4 11.54 96.14 11.54 121.63"/><line class="cls-1" x1="33.61" y1="96.14" x2="33.61" y2="121.63"/><polyline class="cls-1" points="110.85 153.49 99.82 159.86 88.78 166.23 77.75 159.86 66.71 153.49 66.71 140.74 66.71 128 77.75 121.63 88.78 115.26 99.82 121.63 110.85 128 110.85 140.74 99.82 147.12"/><line class="cls-1" x1="99.82" y1="134.37" x2="110.85" y2="128"/><polyline class="cls-1" points="88.78 166.23 88.78 153.49 88.78 140.74 77.75 134.37 66.71 128"/><polyline class="cls-1" points="77.75 121.63 99.82 134.37 99.82 159.86"/><line class="cls-1" x1="77.75" y1="134.37" x2="77.75" y2="159.86"/><polyline class="cls-1" points="177.06 115.26 188.1 121.63 199.13 128 210.17 121.63 221.2 115.26 221.2 102.52 221.2 89.77 210.17 83.4 199.13 77.03 188.1 83.4 177.06 89.77 177.06 102.52 188.1 108.89"/><line class="cls-1" x1="188.1" y1="96.14" x2="177.06" y2="89.77"/><polyline class="cls-1" points="199.13 128 199.13 115.26 199.13 102.52 210.17 96.14 221.2 89.77"/><polyline class="cls-1" points="210.17 83.4 188.1 96.14 188.1 121.63"/><line class="cls-1" x1="210.17" y1="96.14" x2="210.17" y2="121.63"/><polyline class="cls-1" points="177.06 166.23 166.03 159.86 154.99 153.49 154.99 140.74 154.99 128 166.03 121.63 177.06 115.26 188.1 121.63 199.13 128 199.13 140.74 188.1 147.12"/><line class="cls-1" x1="188.1" y1="134.37" x2="199.13" y2="128"/><polyline class="cls-1" points="177.06 166.23 177.06 153.49 177.06 140.74 166.03 134.37 154.99 128"/><polyline class="cls-1" points="166.03 121.63 188.1 134.37 188.1 159.86"/><line class="cls-1" x1="166.03" y1="134.37" x2="166.03" y2="159.86"/><polyline class="cls-1" points="265.35 166.23 254.31 159.86 243.28 153.49 243.28 140.74 243.28 128 254.31 121.63 265.35 115.26 276.38 121.63 287.42 128 287.42 140.74 276.38 147.12"/><line class="cls-1" x1="276.38" y1="134.37" x2="287.42" y2="128"/><polyline class="cls-1" points="265.35 166.23 265.35 153.49 265.35 140.74 254.31 134.37 243.28 128"/><polyline class="cls-1" points="254.31 121.63 276.38 134.37 276.38 159.86"/><line class="cls-1" x1="254.31" y1="134.37" x2="254.31" y2="159.86"/><polyline class="cls-1" points="177.06 102.52 177.06 89.77 166.03 83.4 154.99 77.03"/><polyline class="cls-1" points="177.06 89.77 166.03 96.14 154.99 102.52 143.96 96.14 132.92 89.77"/><polyline class="cls-1" points="154.99 128 154.99 115.26 143.96 108.89"/><polyline class="cls-1" points="143.96 96.14 143.96 121.63 154.99 128 166.03 121.63 177.06 115.26"/><polyline class="cls-1" points="166.03 121.63 166.03 96.14 143.96 83.4 132.92 89.77 132.92 102.52 132.92 115.26"/><line class="cls-1" x1="177.06" y1="102.52" x2="154.99" y2="115.26"/><polyline class="cls-1" points="199.13 140.74 199.13 128 210.17 121.63 221.2 115.26"/><polyline class="cls-1" points="199.13 128 210.17 134.37 221.2 140.74 232.24 134.37 243.28 128"/><polyline class="cls-1" points="221.2 166.23 221.2 153.49 232.24 147.12"/><polyline class="cls-1" points="232.24 134.37 232.24 159.86 221.2 166.23 210.17 159.86 199.13 153.49"/><polyline class="cls-1" points="210.17 159.86 210.17 134.37 232.24 121.63 243.27 128 243.27 140.74 243.27 153.49"/><line class="cls-1" x1="199.13" y1="140.74" x2="221.2" y2="153.49"/><polyline class="cls-1" points="22.57 140.74 22.57 128 33.6 121.63 44.64 115.26"/><polyline class="cls-1" points="22.57 128 33.6 134.37 44.64 140.74 55.68 134.37 66.71 128"/><polyline class="cls-1" points="44.64 166.23 44.64 153.49 55.68 147.12"/><polyline class="cls-1" points="55.68 134.37 55.68 159.86 44.64 166.23 33.61 159.86 22.57 153.49"/><polyline class="cls-1" points="33.6 159.86 33.6 134.37 55.68 121.63 66.71 128 66.71 140.74 66.71 153.49"/><line class="cls-1" x1="22.57" y1="140.74" x2="44.64" y2="153.49"/><polyline class="cls-1" points="110.85 140.74 110.85 128 121.89 121.63 132.92 115.26"/><polyline class="cls-1" points="110.85 128 121.89 134.37 132.92 140.74 143.96 134.37 154.99 128"/><polyline class="cls-1" points="132.92 166.23 132.92 153.49 143.96 147.12"/><polyline class="cls-1" points="143.96 134.37 143.96 159.86 132.92 166.23 121.89 159.86 110.85 153.49"/><polyline class="cls-1" points="121.89 159.86 121.89 134.37 143.96 121.63 154.99 128 154.99 140.74 154.99 153.49"/><line class="cls-1" x1="110.85" y1="140.74" x2="132.92" y2="153.49"/><polyline class="cls-1" points="265.35 89.77 254.31 96.14 243.28 102.52 232.24 96.14 221.2 89.77"/><polyline class="cls-1" points="243.27 128 243.27 115.26 232.24 108.89"/><polyline class="cls-1" points="232.24 96.14 232.24 121.63 243.27 128 254.31 121.63 265.34 115.26"/><polyline class="cls-1" points="254.31 121.63 254.31 96.14 232.24 83.4 221.21 89.77 221.21 102.52 221.21 115.26"/><polyline class="cls-1" points="243.27 115.26 265.34 102.52 265.34 89.77 254.31 83.4 243.27 77.03"/><polyline class="cls-1" points="88.78 102.52 88.78 89.77 77.75 83.4 66.71 77.03"/><polyline class="cls-1" points="88.78 89.77 77.75 96.14 66.71 102.52 55.68 96.14 44.64 89.77"/><polyline class="cls-1" points="66.71 128 66.71 115.26 55.68 108.89"/><polyline class="cls-1" points="55.68 96.14 55.68 121.63 66.71 128 77.75 121.63 88.78 115.26"/><polyline class="cls-1" points="77.75 121.63 77.75 96.14 55.68 83.4 44.64 89.77 44.64 102.52 44.64 115.26"/><line class="cls-1" x1="88.78" y1="102.52" x2="66.71" y2="115.26"/><polyline class="cls-1" points="88.78 191.71 99.82 198.08 110.85 204.46 121.89 198.08 132.92 191.71 132.92 178.97 132.92 166.23 121.89 159.86 110.85 153.49 99.82 159.86 88.78 166.23 88.78 178.97 99.82 185.34"/><line class="cls-1" x1="99.82" y1="172.6" x2="88.78" y2="166.23"/><polyline class="cls-1" points="110.85 204.46 110.85 191.71 110.85 178.97 121.89 172.6 132.92 166.23"/><polyline class="cls-1" points="121.89 159.86 99.82 172.6 99.82 198.08"/><line class="cls-1" x1="121.89" y1="172.6" x2="121.89" y2="198.08"/><polyline class="cls-1" points="0.5 191.71 11.54 198.08 22.57 204.46 33.6 198.08 44.64 191.71 44.64 178.97 44.64 166.23 33.6 159.86 22.57 153.49 11.54 159.86 0.5 166.23 0.5 178.97 11.54 185.34"/><line class="cls-1" x1="11.54" y1="172.6" x2="0.5" y2="166.23"/><polyline class="cls-1" points="22.57 204.46 22.57 191.71 22.57 178.97 33.6 172.6 44.64 166.23"/><polyline class="cls-1" points="33.6 159.86 11.54 172.6 11.54 198.08"/><line class="cls-1" x1="33.61" y1="172.6" x2="33.61" y2="198.08"/><polyline class="cls-1" points="110.85 229.94 99.82 236.31 88.78 242.68 77.75 236.31 66.71 229.94 66.71 217.2 66.71 204.46 77.75 198.08 88.78 191.71 99.82 198.08 110.85 204.46 110.85 217.2 99.82 223.57"/><line class="cls-1" x1="99.82" y1="210.83" x2="110.85" y2="204.45"/><polyline class="cls-1" points="88.78 242.68 88.78 229.94 88.78 217.2 77.75 210.83 66.71 204.46"/><polyline class="cls-1" points="77.75 198.08 99.82 210.83 99.82 236.31"/><line class="cls-1" x1="77.75" y1="210.83" x2="77.75" y2="236.31"/><polyline class="cls-1" points="177.06 191.71 188.1 198.08 199.13 204.46 210.17 198.08 221.2 191.71 221.2 178.97 221.2 166.23 210.17 159.86 199.13 153.49 188.1 159.86 177.06 166.23 177.06 178.97 188.1 185.34"/><line class="cls-1" x1="188.1" y1="172.6" x2="177.06" y2="166.23"/><polyline class="cls-1" points="199.13 204.46 199.13 191.71 199.13 178.97 210.17 172.6 221.2 166.23"/><polyline class="cls-1" points="210.17 159.86 188.1 172.6 188.1 198.08"/><line class="cls-1" x1="210.17" y1="172.6" x2="210.17" y2="198.08"/><line class="cls-1" x1="188.1" y1="210.83" x2="199.13" y2="204.45"/><polyline class="cls-1" points="154.99 204.46 166.03 210.83 177.06 217.2 177.06 229.94 177.06 242.68 166.03 236.31 154.99 229.94 154.99 217.2 154.99 204.46 166.03 198.08 177.06 191.71 188.1 198.08 199.13 204.46 199.13 217.2 188.1 223.57"/><polyline class="cls-1" points="166.03 198.08 188.1 210.83 188.1 236.31"/><line class="cls-1" x1="166.03" y1="210.83" x2="166.03" y2="236.31"/><line class="cls-1" x1="276.38" y1="210.83" x2="287.42" y2="204.45"/><polyline class="cls-1" points="243.27 204.46 254.31 210.83 265.34 217.2 265.34 229.94 265.34 242.68 254.31 236.31 243.27 229.94 243.27 217.2 243.27 204.46 254.31 198.08 265.34 191.71 276.38 198.08 287.42 204.46 287.42 217.2 276.38 223.57"/><polyline class="cls-1" points="254.31 198.08 276.38 210.83 276.38 236.31"/><line class="cls-1" x1="254.31" y1="210.83" x2="254.31" y2="236.31"/><polyline class="cls-1" points="177.06 178.97 177.06 166.23 166.03 159.86 154.99 153.49"/><polyline class="cls-1" points="177.06 166.23 166.03 172.6 154.99 178.97 143.96 172.6 132.92 166.23"/><polyline class="cls-1" points="154.99 204.46 154.99 191.71 143.96 185.34"/><polyline class="cls-1" points="143.96 172.6 143.96 198.08 154.99 204.46 166.03 198.08 177.06 191.71"/><polyline class="cls-1" points="166.03 198.08 166.03 172.6 143.96 159.86 132.92 166.23 132.92 178.97 132.92 191.71"/><line class="cls-1" x1="177.06" y1="178.97" x2="154.99" y2="191.71"/><polyline class="cls-1" points="199.13 217.2 199.13 204.46 210.17 198.08 221.2 191.71"/><polyline class="cls-1" points="199.13 204.46 210.17 210.83 221.2 217.2 232.24 210.83 243.28 204.46"/><polyline class="cls-1" points="221.2 242.68 221.2 229.94 232.24 223.57"/><polyline class="cls-1" points="232.24 210.83 232.24 236.31 221.2 242.68 210.17 236.31 199.13 229.94"/><polyline class="cls-1" points="210.17 236.31 210.17 210.83 232.24 198.08 243.27 204.46 243.27 217.2 243.27 229.94"/><line class="cls-1" x1="199.13" y1="217.2" x2="221.2" y2="229.94"/><polyline class="cls-1" points="22.57 204.46 33.6 210.83 44.64 217.2 55.68 210.83 66.71 204.46"/><polyline class="cls-1" points="44.64 242.68 44.64 229.94 55.68 223.57"/><polyline class="cls-1" points="55.68 210.83 55.68 236.31 44.64 242.68 33.61 236.31 22.57 229.94"/><polyline class="cls-1" points="33.6 236.31 33.6 210.83 55.68 198.08 66.71 204.46 66.71 217.2 66.71 229.94"/><polyline class="cls-1" points="44.64 229.94 22.57 217.2 22.57 204.46 33.61 198.08 44.64 191.71"/><polyline class="cls-1" points="110.85 217.2 110.85 204.46 121.89 198.08 132.92 191.71"/><polyline class="cls-1" points="110.85 204.46 121.89 210.83 132.92 217.2 143.96 210.83 154.99 204.46"/><polyline class="cls-1" points="132.92 242.68 132.92 229.94 143.96 223.57"/><polyline class="cls-1" points="143.96 210.83 143.96 236.31 132.92 242.68 121.89 236.31 110.85 229.94"/><polyline class="cls-1" points="121.89 236.31 121.89 210.83 143.96 198.08 154.99 204.46 154.99 217.2 154.99 229.94"/><line class="cls-1" x1="110.85" y1="217.2" x2="132.92" y2="229.94"/><polyline class="cls-1" points="265.35 166.23 254.31 172.6 243.28 178.97 232.24 172.6 221.2 166.23"/><polyline class="cls-1" points="243.27 204.46 243.27 191.71 232.24 185.34"/><polyline class="cls-1" points="232.24 172.6 232.24 198.08 243.27 204.46 254.31 198.08 265.34 191.71"/><polyline class="cls-1" points="254.31 198.08 254.31 172.6 232.24 159.86 221.21 166.23 221.21 178.97 221.21 191.71"/><polyline class="cls-1" points="243.27 191.71 265.34 178.97 265.34 166.23 254.31 159.86 243.27 153.49"/><polyline class="cls-1" points="88.78 178.97 88.78 166.23 77.75 159.86 66.71 153.49"/><polyline class="cls-1" points="88.78 166.23 77.75 172.6 66.71 178.97 55.68 172.6 44.64 166.23"/><polyline class="cls-1" points="66.71 204.46 66.71 191.71 55.68 185.34"/><polyline class="cls-1" points="55.68 172.6 55.68 198.08 66.71 204.46 77.75 198.08 88.78 191.71"/><polyline class="cls-1" points="77.75 198.08 77.75 172.6 55.68 159.86 44.64 166.23 44.64 178.97 44.64 191.71"/><line class="cls-1" x1="88.78" y1="178.97" x2="66.71" y2="191.71"/></g></g></svg>