<svg xmlns="http://www.w3.org/2000/svg" xmlns:xlink="http://www.w3.org/1999/xlink" version="1.1" x="0px" y="0px" viewBox="0 0 52 52" style="enable-background:new 0 0 52 52;" xml:space="preserve"><style type="text/css">
	.st0{fill:none;stroke:#000000;stroke-width:2;stroke-miterlimit:10;}
	.st1{fill:none;stroke:#000000;stroke-width:2;stroke-linecap:round;stroke-linejoin:round;stroke-miterlimit:10;}
</style><g><g><path d="M47,47.2231445H5c-1.6542969,0-3-1.3457031-3-3V17.4829102c0-1.6542969,1.3457031-3,3-3h13.3295898v3.8798828H33.659668    v-3.8798828H47c1.6542969,0,3,1.3457031,3,3v26.7402344C50,45.8774414,48.6542969,47.2231445,47,47.2231445z M5,16.4829102    c-0.5512695,0-1,0.4482422-1,1v26.7402344c0,0.5517578,0.4487305,1,1,1h42c0.5512695,0,1-0.4482422,1-1V17.4829102    c0-0.5517578-0.4487305-1-1-1H35.659668v3.8798828H16.3295898v-3.8798828H5z"/></g><g><path d="M34.659668,20.362793H17.3295898c-0.5522461,0-1-0.4472656-1-1v-6.4296875c0-1.1025391,0.8969727-2,2-2H33.659668    c1.1030273,0,2,0.8974609,2,2v6.4296875C35.659668,19.9155273,35.2119141,20.362793,34.659668,20.362793z M18.3295898,18.362793    H33.659668v-5.4296875c0-0.0019531,0-0.0029297,0-0.0029297l-15.3300781,0.0029297V18.362793z"/></g><g><path d="M25.9990234,12.9360352c-2.2495117,0-4.0795898-1.8300781-4.0795898-4.0800781    c0-2.2490234,1.8300781-4.0791016,4.0795898-4.0791016s4.0795898,1.8300781,4.0795898,4.0791016    C30.0786133,11.105957,28.2485352,12.9360352,25.9990234,12.9360352z M25.9990234,6.7768555    c-1.1464844,0-2.0795898,0.9326172-2.0795898,2.0791016s0.9331055,2.0800781,2.0795898,2.0800781    s2.0795898-0.9335938,2.0795898-2.0800781S27.1455078,6.7768555,25.9990234,6.7768555z"/></g><g><g><path d="M14.3134766,32.7524414c-2.2055664,0-4-1.7939453-4-4s1.7944336-4,4-4s4,1.7939453,4,4     S16.519043,32.7524414,14.3134766,32.7524414z M14.3134766,26.7524414c-1.1030273,0-2,0.8974609-2,2s0.8969727,2,2,2     s2-0.8974609,2-2S15.4165039,26.7524414,14.3134766,26.7524414z"/></g><g><path d="M19.6313477,40.8334961H8.9956055c-1.1030273,0-2-0.8974609-2-2v-3.0810547c0-2.7568359,2.2431641-5,5-5h4.6357422     c2.7568359,0,5,2.2431641,5,5v3.0810547C21.6313477,39.9360352,20.734375,40.8334961,19.6313477,40.8334961z      M11.9956055,32.7524414c-1.6542969,0-3,1.3457031-3,3v3.0810547h10.6357422v-3.0810547c0-1.6542969-1.3457031-3-3-3H11.9956055z     "/></g></g><g><g><path d="M44,39.793457H26.3417969c-0.5522461,0-1-0.4472656-1-1s0.4477539-1,1-1H44c0.5522461,0,1,0.4472656,1,1     S44.5522461,39.793457,44,39.793457z"/></g><g><path d="M44,33.793457H26.3417969c-0.5522461,0-1-0.4472656-1-1s0.4477539-1,1-1H44c0.5522461,0,1,0.4472656,1,1     S44.5522461,33.793457,44,33.793457z"/></g><g><path d="M44,27.793457H26.3417969c-0.5522461,0-1-0.4472656-1-1s0.4477539-1,1-1H44c0.5522461,0,1,0.4472656,1,1     S44.5522461,27.793457,44,27.793457z"/></g></g></g></svg>