<svg xmlns="http://www.w3.org/2000/svg" xmlns:xlink="http://www.w3.org/1999/xlink" version="1.1" x="0px" y="0px" viewBox="0 0 52 52" style="enable-background:new 0 0 52 52;" xml:space="preserve"><style type="text/css">
	.st0{fill:none;stroke:#000000;stroke-width:2;stroke-linecap:round;stroke-linejoin:round;stroke-miterlimit:10;}
</style><g><g><path d="M47,50H5c-0.5522461,0-1-0.4477539-1-1V3c0-0.5522461,0.4477539-1,1-1h42c0.5522461,0,1,0.4477539,1,1v46    C48,49.5522461,47.5522461,50,47,50z M6,48h40V4H6V48z"/></g><g><path d="M43,46H9c-0.5522461,0-1-0.4477539-1-1V7c0-0.5522461,0.4477539-1,1-1h34c0.5522461,0,1,0.4477539,1,1v38    C44,45.5522461,43.5522461,46,43,46z M10,44h32V8H10V44z"/></g><g><path d="M43,33.3330078H9c-0.5522461,0-1-0.4477539-1-1V19.6665039c0-0.5522461,0.4477539-1,1-1h34c0.5522461,0,1,0.4477539,1,1    v12.6665039C44,32.8852539,43.5522461,33.3330078,43,33.3330078z M10,31.3330078h32V20.6665039H10V31.3330078z"/></g><g><path d="M43,46H9c-0.5522461,0-1-0.4477539-1-1V32.3330078c0-0.5522461,0.4477539-1,1-1h34c0.5522461,0,1,0.4477539,1,1V45    C44,45.5522461,43.5522461,46,43,46z M10,44h32V33.3330078H10V44z"/></g><g><path d="M43,20.6665039H9c-0.5522461,0-1-0.4477539-1-1V7c0-0.5522461,0.4477539-1,1-1h34c0.5522461,0,1,0.4477539,1,1v12.6665039    C44,20.21875,43.5522461,20.6665039,43,20.6665039z M10,18.6665039h32V8H10V18.6665039z"/></g><g><g><path d="M29.7734375,14.3330078h-7.5473633c-0.5522461,0-1-0.4477539-1-1s0.4477539-1,1-1h7.5473633c0.5522461,0,1,0.4477539,1,1     S30.3256836,14.3330078,29.7734375,14.3330078z"/></g><g><path d="M29.7734375,15.3330078c-0.5522461,0-1-0.4477539-1-1v-2c0-0.5522461,0.4477539-1,1-1s1,0.4477539,1,1v2     C30.7734375,14.8852539,30.3256836,15.3330078,29.7734375,15.3330078z"/></g><g><path d="M22.2260742,15.3330078c-0.5522461,0-1-0.4477539-1-1v-2c0-0.5522461,0.4477539-1,1-1s1,0.4477539,1,1v2     C23.2260742,14.8852539,22.7783203,15.3330078,22.2260742,15.3330078z"/></g></g><g><g><path d="M29.7734375,27h-7.5473633c-0.5522461,0-1-0.4477539-1-1s0.4477539-1,1-1h7.5473633c0.5522461,0,1,0.4477539,1,1     S30.3256836,27,29.7734375,27z"/></g><g><path d="M29.7734375,28c-0.5522461,0-1-0.4477539-1-1v-2c0-0.5522461,0.4477539-1,1-1s1,0.4477539,1,1v2     C30.7734375,27.5522461,30.3256836,28,29.7734375,28z"/></g><g><path d="M22.2260742,28c-0.5522461,0-1-0.4477539-1-1v-2c0-0.5522461,0.4477539-1,1-1s1,0.4477539,1,1v2     C23.2260742,27.5522461,22.7783203,28,22.2260742,28z"/></g></g><g><g><path d="M29.7734375,39.6665039h-7.5473633c-0.5522461,0-1-0.4477539-1-1s0.4477539-1,1-1h7.5473633c0.5522461,0,1,0.4477539,1,1     S30.3256836,39.6665039,29.7734375,39.6665039z"/></g><g><path d="M29.7734375,40.6665039c-0.5522461,0-1-0.4477539-1-1v-2c0-0.5522461,0.4477539-1,1-1s1,0.4477539,1,1v2     C30.7734375,40.21875,30.3256836,40.6665039,29.7734375,40.6665039z"/></g><g><path d="M22.2260742,40.6665039c-0.5522461,0-1-0.4477539-1-1v-2c0-0.5522461,0.4477539-1,1-1s1,0.4477539,1,1v2     C23.2260742,40.21875,22.7783203,40.6665039,22.2260742,40.6665039z"/></g></g></g></svg>