<svg xmlns="http://www.w3.org/2000/svg" xmlns:xlink="http://www.w3.org/1999/xlink" version="1.1" x="0px" y="0px" viewBox="0 0 52 52" style="enable-background:new 0 0 52 52;" xml:space="preserve"><style type="text/css">
	.st0{fill:none;stroke:#000000;stroke-width:2;stroke-miterlimit:10;}
	.st1{fill:none;stroke:#000000;stroke-width:2;stroke-linecap:round;stroke-linejoin:round;stroke-miterlimit:10;}
</style><g><g><path d="M42.5083008,50H9.4916992c-0.5527344,0-1-0.4472656-1-1V8.1904297c0-0.5527344,0.4472656-1,1-1h9.3007813    c0.5527344,0,1,0.4472656,1,1v1.6865234h12.40625V8.1904297c0-0.5527344,0.4472656-1,1-1h9.3095703c0.5527344,0,1,0.4472656,1,1    V49C43.5083008,49.5527344,43.0610352,50,42.5083008,50z M10.4916992,48h31.0166016V9.1904297h-7.3095703v1.6865234    c0,0.5527344-0.4472656,1-1,1h-14.40625c-0.5527344,0-1-0.4472656-1-1V9.1904297h-7.3007813V48z"/></g><g><path d="M33.1987305,11.8769531h-14.40625c-0.5527344,0-1-0.4472656-1-1V6.4638672    c0-1.0751953,0.8740234-1.9492188,1.9482422-1.9492188h1.7333984l1.28125-1.5927734    C23.1088867,2.3505859,23.7348633,2,24.4125977,2h3.1650391c0.6767578,0,1.3027344,0.3505859,1.6572266,0.9208984    l1.2822266,1.59375h1.7324219c1.0751953,0,1.9492188,0.8740234,1.9492188,1.9492188v4.4130859    C34.1987305,11.4296875,33.7514648,11.8769531,33.1987305,11.8769531z M19.7807617,9.8769531h12.4179688V6.5146484h-2.1601563    c-0.3027344,0-0.5888672-0.1367188-0.7792969-0.3730469l-1.6279297-2.0224609    c-0.0361328-0.0449219-0.0693359-0.09375-0.0966797-0.1455078L24.4125977,4    c-0.0283203,0.0517578-0.015625,0.0732422-0.0527344,0.1191406l-1.6279297,2.0224609    c-0.1904297,0.2363281-0.4765625,0.3730469-0.7792969,0.3730469h-2.2119141L19.7807617,9.8769531z"/></g><g><path d="M37.7631836,46.203125H14.2368164c-0.5527344,0-1-0.4472656-1-1V8.1904297c0-0.5527344,0.4472656-1,1-1h4.5556641    c0.5527344,0,1,0.4472656,1,1v1.6865234h12.40625V8.1904297c0-0.5527344,0.4472656-1,1-1h4.5644531c0.5527344,0,1,0.4472656,1,1    V45.203125C38.7631836,45.7558594,38.315918,46.203125,37.7631836,46.203125z M15.2368164,44.203125h21.5263672V9.1904297    h-2.5644531v1.6865234c0,0.5527344-0.4472656,1-1,1h-14.40625c-0.5527344,0-1-0.4472656-1-1V9.1904297h-2.5556641V44.203125z"/></g><g><g><path d="M20.1518555,19.6298828c-0.2568359,0-0.5126953-0.0986328-0.7070313-0.2929688l-1.7441406-1.7441406     c-0.390625-0.390625-0.390625-1.0234375,0-1.4140625s1.0234375-0.390625,1.4140625,0l1.1220703,1.1220703l2.9863281-2.3085938     c0.4375-0.3388672,1.0644531-0.2558594,1.4023438,0.1796875c0.3378906,0.4365234,0.2578125,1.0644531-0.1796875,1.4023438     l-3.6826172,2.8466797C20.5825195,19.5605469,20.3666992,19.6298828,20.1518555,19.6298828z"/></g><g><path d="M33.5922852,18.2070313h-6.140625c-0.5527344,0-1-0.4472656-1-1s0.4472656-1,1-1h6.140625c0.5527344,0,1,0.4472656,1,1     S34.1450195,18.2070313,33.5922852,18.2070313z"/></g><g><path d="M20.1518555,27.2226563c-0.2568359,0-0.5136719-0.0986328-0.7070313-0.2929688l-1.7441406-1.7451172     c-0.390625-0.390625-0.390625-1.0234375,0-1.4140625s1.0234375-0.390625,1.4140625,0l1.1220703,1.1220703l2.9863281-2.3076172     c0.4375-0.3388672,1.0644531-0.2558594,1.4023438,0.1796875c0.3378906,0.4365234,0.2578125,1.0644531-0.1796875,1.4023438     l-3.6826172,2.8466797C20.5825195,27.1533203,20.3666992,27.2226563,20.1518555,27.2226563z"/></g><g><path d="M33.5922852,25.7988281h-6.140625c-0.5527344,0-1-0.4472656-1-1s0.4472656-1,1-1h6.140625c0.5527344,0,1,0.4472656,1,1     S34.1450195,25.7988281,33.5922852,25.7988281z"/></g><g><path d="M20.1518555,34.8154297c-0.2568359,0-0.5136719-0.0986328-0.7070313-0.2929688l-1.7441406-1.7451172     c-0.390625-0.390625-0.390625-1.0234375,0-1.4140625s1.0234375-0.390625,1.4140625,0l1.1220703,1.1220703l2.9863281-2.3085938     c0.4365234-0.3388672,1.0644531-0.2568359,1.4023438,0.1796875s0.2578125,1.0644531-0.1796875,1.4023438l-3.6826172,2.8476563     C20.5825195,34.7460938,20.3666992,34.8154297,20.1518555,34.8154297z"/></g><g><path d="M33.5922852,33.3916016h-6.140625c-0.5527344,0-1-0.4472656-1-1s0.4472656-1,1-1h6.140625c0.5527344,0,1,0.4472656,1,1     S34.1450195,33.3916016,33.5922852,33.3916016z"/></g><g><path d="M20.1518555,42.4072266c-0.2568359,0-0.5136719-0.0986328-0.7070313-0.2929688l-1.7441406-1.7451172     c-0.390625-0.390625-0.390625-1.0234375,0-1.4140625s1.0234375-0.390625,1.4140625,0l1.1220703,1.1220703l2.9863281-2.3076172     c0.4375-0.3388672,1.0644531-0.2558594,1.4023438,0.1796875c0.3378906,0.4365234,0.2578125,1.0644531-0.1796875,1.4023438     l-3.6826172,2.8466797C20.5825195,42.3378906,20.3666992,42.4072266,20.1518555,42.4072266z"/></g><g><path d="M33.5922852,40.9833984h-6.140625c-0.5527344,0-1-0.4472656-1-1s0.4472656-1,1-1h6.140625c0.5527344,0,1,0.4472656,1,1     S34.1450195,40.9833984,33.5922852,40.9833984z"/></g></g></g></svg>