<svg xmlns="http://www.w3.org/2000/svg" xmlns:xlink="http://www.w3.org/1999/xlink" version="1.1" x="0px" y="0px" viewBox="0 0 52 52" style="enable-background:new 0 0 52 52;" xml:space="preserve"><style type="text/css">
	.st0{fill:none;stroke:#000000;stroke-width:2;stroke-miterlimit:10;}
	.st1{fill:none;stroke:#000000;stroke-width:2;stroke-linecap:round;stroke-linejoin:round;stroke-miterlimit:10;}
</style><g><g><path d="M4.3778548,49.0003815c-0.2485352,0-0.4970701-0.0917969-0.6904294-0.2768555    c-0.3994141-0.3813477-0.4140625-1.0141602-0.0327148-1.4135742l13.3676758-13.9980469    c0.3393555-0.3549805,0.8842773-0.4125977,1.2900391-0.1333008l7.5029297,5.1621094l7.6733379-5.3603516    c0.4057617-0.2817383,0.9555664-0.2265625,1.2958984,0.1293945l13.5605469,14.2001953    c0.3813477,0.3994141,0.3666992,1.0322266-0.0327148,1.4135742c-0.3989258,0.3813477-1.0322266,0.3666992-1.4135742-0.0327148    L33.9305878,35.1112213l-7.538084,5.2661133c-0.3422852,0.2387695-0.7963867,0.2397461-1.1396484,0.0039063l-7.3725586-5.0722656    L5.1009994,48.6908112C4.9047103,48.8968658,4.6415267,49.0003815,4.3778548,49.0003815z"/></g><g><path d="M25.8197498,40.5575104c-0.206543,0-0.4130859-0.0639648-0.5888672-0.1914063L10.3671131,29.5418854    c-0.2583008-0.1884766-0.4111328-0.4887695-0.4111328-0.8085938V9.773818c0-0.2651367,0.1054688-0.5195313,0.2929688-0.7070313    l6.7734375-6.7734375c0.1875-0.1875,0.4418945-0.2929688,0.7070313-0.2929688H39.043869c1.6542969,0,3,1.3457031,3,3.0000002    v23.7402344c0,0.3237305-0.1567383,0.6274414-0.4208984,0.8154297L26.3988514,40.3729401    C26.2255116,40.4959869,26.0223866,40.5575104,25.8197498,40.5575104z M11.9559803,28.2245026l13.8710938,10.1010742    l14.216795-10.1010742V5.000381c0-0.5512695-0.4487305-1-1-1H18.1434803l-6.1875,6.1874995V28.2245026z M41.043869,28.7406158    h0.0097656H41.043869z"/></g><g><path d="M46.621994,50.0003815H5.3778548c-1.6542966,0-2.9999998-1.3457031-2.9999998-3V23.6278229    c0-0.4116211,0.2524414-0.78125,0.6357422-0.9311523l7.578125-2.965332    c0.3081055-0.1201172,0.6547852-0.0800781,0.9282227,0.1049805c0.2729492,0.1865234,0.4360352,0.4956055,0.4360352,0.8261719    v7.5620117l13.8710938,10.1010742l14.216795-10.1010742v-7.5620117c0-0.3305664,0.1630859-0.6396484,0.4360352-0.8261719    c0.2739258-0.1860352,0.6206055-0.2260742,0.9282227-0.1049805l7.578125,2.965332    c0.3833008,0.1499023,0.6357422,0.5195313,0.6357422,0.9311523v23.3725586    C49.621994,48.6546783,48.2762909,50.0003815,46.621994,50.0003815z M4.3778548,24.3104401v22.6899414    c0,0.5512695,0.4487305,1,1,1H46.621994c0.5512695,0,1-0.4487305,1-1V24.3104401l-5.578125-2.1826172v6.612793    c0,0.3237305-0.1567383,0.6274414-0.4208984,0.8154297L26.3988514,40.3729401    c-0.3491211,0.2485352-0.8198242,0.2460938-1.1679688-0.0068359L10.3671131,29.5418854    c-0.2583008-0.1884766-0.4111328-0.4887695-0.4111328-0.8085938v-6.6054688L4.3778548,24.3104401z M41.043869,28.7406158    h0.0097656H41.043869z"/></g><g><g><path d="M25.8241444,40.555069c-0.3144531,0-0.6235352-0.1474609-0.8183594-0.4238281     c-0.3173828-0.4506836-0.2109375-1.0722656,0.2382813-1.3916016L40.043869,28.2245026v-7.5620117     c0-0.3305664,0.1630859-0.6396484,0.4360352-0.8261719c0.2739258-0.1860352,0.6206055-0.2260742,0.9282227-0.1049805     l7.578125,2.965332c0.34375,0.1342773,0.5849609,0.4467773,0.6289063,0.8129883     c0.043457,0.3662109-0.1181641,0.7265625-0.4204102,0.9379883L26.3959217,40.3748932     C26.2216053,40.4964752,26.0218983,40.555069,25.8241444,40.555069z M42.043869,22.1278229v4.8754883l4.4736328-3.125     L42.043869,22.1278229z"/></g><g><path d="M25.8187733,40.5575104c-0.1982422,0-0.3984375-0.0585938-0.5732422-0.1811523L2.8036363,24.6449127     c-0.2666016-0.1870117-0.4257813-0.4926758-0.4257813-0.8188477v-0.1982422c0-0.4116211,0.2524414-0.78125,0.6357422-0.9311523     l7.578125-2.965332c0.3081055-0.1201172,0.6547852-0.0800781,0.9282227,0.1049805     c0.2729492,0.1865234,0.4360352,0.4956055,0.4360352,0.8261719v7.5620117L26.408617,38.7489166     c0.4433594,0.3232422,0.5439453,0.9433594,0.2246094,1.3901367     C26.4384022,40.4120026,26.130785,40.5575104,25.8187733,40.5575104z M5.2972884,23.9505768l4.6586919,3.265625v-5.0883789     L5.2972884,23.9505768z"/></g></g><g><path d="M34.9999237,17.5404205H16.9999256c-0.5522461,0-1-0.4477539-1-1c0-0.552247,0.4477539-1.000001,1-1.000001h17.9999981    c0.5522461,0,1,0.4477539,1,1.000001C35.9999237,17.0926666,35.5521698,17.5404205,34.9999237,17.5404205z"/></g><g><path d="M34.9999237,22.5404205H16.9999256c-0.5522461,0-1-0.4477539-1-1s0.4477539-1,1-1h17.9999981c0.5522461,0,1,0.4477539,1,1    S35.5521698,22.5404205,34.9999237,22.5404205z"/></g><g><path d="M34.9999237,27.5404205H16.9999256c-0.5522461,0-1-0.4477539-1-1s0.4477539-1,1-1h17.9999981c0.5522461,0,1,0.4477539,1,1    S35.5521698,27.5404205,34.9999237,27.5404205z"/></g><g><path d="M17.7294178,10.773818h-6.7734375c-0.4042969,0-0.769043-0.2436523-0.9238281-0.6171875    C9.877367,9.7826071,9.9628162,9.3529196,10.2489491,9.0667868l6.7734375-6.7734375    c0.2856445-0.2866211,0.715332-0.3730468,1.0898438-0.2167969c0.3735352,0.1547852,0.6171875,0.5195313,0.6171875,0.9238281    V9.773818C18.7294178,10.3260641,18.2816639,10.773818,17.7294178,10.773818z M13.3700428,8.773818h3.359375V5.4144435    L13.3700428,8.773818z"/></g></g></svg>