<svg xmlns="http://www.w3.org/2000/svg" xmlns:xlink="http://www.w3.org/1999/xlink" version="1.1" x="0px" y="0px" viewBox="0 0 52 52" style="enable-background:new 0 0 52 52;" xml:space="preserve"><style type="text/css">
	.st0{fill:none;stroke:#000000;stroke-width:2;stroke-miterlimit:10;}
	.st1{fill:none;stroke:#000000;stroke-width:2;stroke-linecap:round;stroke-linejoin:round;stroke-miterlimit:10;}
</style><g><g><path d="M26.0004234,13.0478516c-2.4443359,0-4.4326172-1.9882813-4.4326172-4.4321289s1.9882813-4.4321289,4.4326172-4.4321289    s4.4326172,1.9882813,4.4326172,4.4321289S28.4447594,13.0478516,26.0004234,13.0478516z M26.0004234,6.1835938    c-1.3417969,0-2.4326172,1.0908203-2.4326172,2.4321289s1.0908203,2.4321289,2.4326172,2.4321289    s2.4326172-1.0908203,2.4326172-2.4321289S27.3422203,6.1835938,26.0004234,6.1835938z"/></g><g><path d="M31.3461266,22.0966797H20.6537437c-1.4111328,0-2.6796875-0.7260742-3.3945313-1.9418945    c-0.7197266-1.2255859-0.7353516-2.7001953-0.0410156-3.9443359c1.7744141-3.1845703,5.1396484-5.1625977,8.7822266-5.1625977    s7.0078125,1.9780273,8.7822266,5.1625977c0.6943359,1.2441406,0.6787109,2.71875-0.0410156,3.9438477    C34.0267906,21.3706055,32.7582359,22.0966797,31.3461266,22.0966797z M26.0004234,13.0478516    c-2.9179688,0-5.6132813,1.5849609-7.0361328,4.1362305c-0.3447266,0.6186523-0.3369141,1.3500977,0.0195313,1.9575195    c0.3515625,0.5981445,0.9755859,0.9550781,1.6699219,0.9550781h10.6923828c0.6953125,0,1.3193359-0.3569336,1.6708984-0.9550781    c0.3564453-0.6074219,0.3642578-1.3393555,0.0195313-1.9575195    C31.6137047,14.6328125,28.9183922,13.0478516,26.0004234,13.0478516z"/></g><g><path d="M11.2904625,38.7675781c-2.4433594,0-4.4316406-1.9882813-4.4316406-4.4321289s1.9882813-4.4321289,4.4316406-4.4321289    c2.4443359,0,4.4326172,1.9882813,4.4326172,4.4321289S13.7347984,38.7675781,11.2904625,38.7675781z M11.2904625,31.9033203    c-1.3408203,0-2.4316406,1.0908203-2.4316406,2.4321289s1.0908203,2.4321289,2.4316406,2.4321289    c1.3417969,0,2.4326172-1.0908203,2.4326172-2.4321289S12.6322594,31.9033203,11.2904625,31.9033203z"/></g><g><path d="M16.6371422,47.8164063H5.9447594c-1.4121094,0-2.6806641-0.7260742-3.3955078-1.9423828    C1.829525,44.6489258,1.8139,43.1743164,2.5082359,41.9301758c1.7744141-3.1845703,5.1396484-5.1625977,8.7822266-5.1625977    s7.0078125,1.9780273,8.7822266,5.1625977c0.6943359,1.2441406,0.6787109,2.71875-0.0410156,3.9443359    C19.3168297,47.090332,18.048275,47.8164063,16.6371422,47.8164063z M11.2904625,38.7675781    c-2.9179688,0-5.6132813,1.5849609-7.0361328,4.1362305c-0.3447266,0.6181641-0.3369141,1.3500977,0.0195313,1.9575195    c0.3515625,0.5981445,0.9755859,0.9550781,1.6708984,0.9550781h10.6923828c0.6943359,0,1.3183594-0.3569336,1.6699219-0.9550781    c0.3564453-0.6074219,0.3642578-1.3388672,0.0195313-1.9575195    C16.9037437,40.3525391,14.2084312,38.7675781,11.2904625,38.7675781z"/></g><g><path d="M40.7103844,38.7675781c-2.4443359,0-4.4326172-1.9882813-4.4326172-4.4321289s1.9882813-4.4321289,4.4326172-4.4321289    c2.4433594,0,4.4316406,1.9882813,4.4316406,4.4321289S43.1537437,38.7675781,40.7103844,38.7675781z M40.7103844,31.9033203    c-1.3417969,0-2.4326172,1.0908203-2.4326172,2.4321289s1.0908203,2.4321289,2.4326172,2.4321289    c1.3408203,0,2.4316406-1.0908203,2.4316406-2.4321289S42.0512047,31.9033203,40.7103844,31.9033203z"/></g><g><path d="M46.0560875,47.8164063H35.3637047c-1.4111328,0-2.6796875-0.7260742-3.3945313-1.9418945    c-0.7197266-1.2255859-0.7353516-2.7001953-0.0410156-3.9443359c1.7744141-3.1845703,5.1396484-5.1625977,8.7822266-5.1625977    s7.0078125,1.9780273,8.7822266,5.1625977c0.6933594,1.2446289,0.6777344,2.7192383-0.0419922,3.9448242    C48.735775,47.0908203,47.4672203,47.8164063,46.0560875,47.8164063z M40.7103844,38.7675781    c-2.9179688,0-5.6132813,1.5849609-7.0361328,4.1362305c-0.3447266,0.6186523-0.3369141,1.3500977,0.0195313,1.9575195    c0.3515625,0.5981445,0.9755859,0.9550781,1.6699219,0.9550781h10.6923828c0.6943359,0,1.3183594-0.3569336,1.6699219-0.9550781    c0.3574219-0.6074219,0.3642578-1.3393555,0.0195313-1.9575195    C46.3236656,40.3525391,43.6283531,38.7675781,40.7103844,38.7675781z"/></g><g><path d="M16.4887047,40.4101563c-0.2431641,0-0.4873047-0.0883789-0.6796875-0.2666016    c-0.4052734-0.3759766-0.4287109-1.0083008-0.0537109-1.4135742l9.2451172-9.9682617v-7.6254883c0-0.5522461,0.4472656-1,1-1    s1,0.4477539,1,1v8.0180664c0,0.2524414-0.0957031,0.4951172-0.2666016,0.6801758L17.2221031,40.090332    C17.0248375,40.3027344,16.7572594,40.4101563,16.4887047,40.4101563z"/></g><g><path d="M35.4506187,40.4550781c-0.2685547,0-0.5361328-0.1074219-0.7333984-0.3198242l-9.5527344-10.3007813    c-0.375-0.4052734-0.3515625-1.0380859,0.0537109-1.4135742c0.4042969-0.3759766,1.0371094-0.3525391,1.4130859,0.0532227    l9.5527344,10.3007813c0.375,0.4052734,0.3515625,1.0380859-0.0537109,1.4135742    C35.9379234,40.3666992,35.6937828,40.4550781,35.4506187,40.4550781z"/></g></g></svg>