<svg xmlns="http://www.w3.org/2000/svg" data-name="Layer 1" viewBox="0 0 100 100" x="0px" y="0px"><defs><style>.cls-1{stroke:#000;stroke-miterlimit:10;stroke-width:0.01px;}</style></defs><title>collections_09</title><path class="cls-1" d="M20,10.33A9.67,9.67,0,1,0,29.67,20,9.68,9.68,0,0,0,20,10.33Zm0,15.33A5.67,5.67,0,1,1,25.67,20,5.67,5.67,0,0,1,20,25.67ZM50,10.33A9.67,9.67,0,1,0,59.67,20,9.68,9.68,0,0,0,50,10.33Zm0,15.33A5.67,5.67,0,1,1,55.67,20,5.67,5.67,0,0,1,50,25.67Zm30,4A9.67,9.67,0,1,0,70.33,20,9.68,9.68,0,0,0,80,29.67Zm0-15.33A5.67,5.67,0,1,1,74.33,20,5.67,5.67,0,0,1,80,14.33Zm-60,26A9.67,9.67,0,1,0,29.67,50,9.68,9.68,0,0,0,20,40.33Zm0,15.33A5.67,5.67,0,1,1,25.67,50,5.67,5.67,0,0,1,20,55.67ZM50,40.33A9.67,9.67,0,1,0,59.67,50,9.68,9.68,0,0,0,50,40.33Zm0,15.33A5.67,5.67,0,1,1,55.67,50,5.67,5.67,0,0,1,50,55.67ZM80,40.33A9.67,9.67,0,1,0,89.67,50,9.68,9.68,0,0,0,80,40.33Zm0,15.33A5.67,5.67,0,1,1,85.67,50,5.67,5.67,0,0,1,80,55.67ZM20,70.33A9.67,9.67,0,1,0,29.67,80,9.68,9.68,0,0,0,20,70.33Zm0,15.33A5.67,5.67,0,1,1,25.67,80,5.67,5.67,0,0,1,20,85.67ZM50,70.33A9.67,9.67,0,1,0,59.67,80,9.68,9.68,0,0,0,50,70.33Zm0,15.33A5.67,5.67,0,1,1,55.67,80,5.67,5.67,0,0,1,50,85.67ZM80,70.33A9.67,9.67,0,1,0,89.67,80,9.68,9.68,0,0,0,80,70.33Zm0,15.33A5.67,5.67,0,1,1,85.67,80,5.67,5.67,0,0,1,80,85.67Z"/></svg>