
<svg version="1.1" id="Layer_1" xmlns="http://www.w3.org/2000/svg" xmlns:xlink="http://www.w3.org/1999/xlink" x="0px" y="0px"
	 viewBox="0 0 36.142 36.142" style="enable-background:new 0 0 121.364 36.142;" xml:space="preserve" class="logo">
<style type="text/css">
	.st0{fill:#96CED3;}
	.st1{fill:#CBDE9A;}
</style>
<g>
	<path class="st0" d="M27.441,26.994c0,0.764-0.084,1.364-0.25,1.801c-0.104,0.249-0.342,0.409-0.518,0.612
		c-0.111,0.211-0.272,0.346-0.431,0.51c-0.02,0.011-0.023,0.034-0.042,0.047c-0.048,0.031-0.108,0.02-0.158,0.049
		c-0.353,0.293-0.677,0.626-1.278,0.619c0,0-1.39-0.631-2.956-1.355c-1.927-0.892-4.123-1.927-4.323-2.111
		c-0.359-0.337-0.541-0.774-0.541-1.316c0-0.553,0.181-0.996,0.541-1.332c0.361-0.336,0.913-0.502,1.656-0.502
		c0,0,3.786,2.232,3.82,1.568c0.005-0.1,0.159-0.021,0.206-0.069c-0.058-1.499-0.095-2.859-0.095-2.859V8.986
		c0-0.891,0.204-1.565,0.613-2.021c0.408-0.456,0.933-0.683,1.571-0.683c0.66,0,1.188,0.232,1.588,0.693
		c0.398,0.461,0.597,1.133,0.597,2.013C27.441,8.988,27.441,26.994,27.441,26.994z M18.575,11.066c0,0.552-0.181,0.997-0.542,1.331
		c-0.36,0.335-0.911,0.503-1.654,0.503c0,0-3.788-2.232-3.821-1.569c-0.005,0.101-0.159,0.021-0.206,0.068
		c0.058,1.5,0.093,2.86,0.093,2.86v13.668c0,0.891-0.204,1.562-0.613,2.022c-0.408,0.452-0.932,0.683-1.571,0.683
		c-0.659,0-1.189-0.231-1.588-0.692c-0.398-0.462-0.597-1.132-0.597-2.015V9.92c0-0.764,0.082-1.365,0.25-1.799
		c0.107-0.25,0.344-0.411,0.52-0.613c0.112-0.211,0.272-0.346,0.432-0.509C9.298,6.986,9.302,6.962,9.32,6.951
		C9.339,6.938,9.361,6.959,9.38,6.949c0.364-0.334,0.732-0.674,1.375-0.667c0,0,1.391,0.629,2.957,1.355
		c1.928,0.891,4.123,1.927,4.322,2.112C18.395,10.085,18.575,10.523,18.575,11.066 M35.622,31.323V4.82
		c0-2.663-2.126-4.82-4.749-4.82H4.748C2.125,0,0,2.157,0,4.82v26.504c0,2.661,2.125,4.818,4.748,4.818h26.126
		C33.495,36.143,35.622,33.985,35.622,31.323"/>
</g>
</svg>
