<svg id="Layer_1" data-name="Layer 1" xmlns="http://www.w3.org/2000/svg" viewBox="0 0 549.6 91.31"><defs><style>.cls-1{fill:#33b9c8;}</style></defs><title>neos-new-logo_primary-light</title><path class="cls-1" d="M1887.22,0h-73a.85.85,0,0,0-.84.84V90.47a.85.85,0,0,0,.84.84h16.58a.84.84,0,0,0,.84-.84V6.82a.85.85,0,0,1,1.53-.5l3.63,4.9a17.43,17.43,0,0,0,14,7h32.16a3.48,3.48,0,0,1,3.48,3.49V90.47a.85.85,0,0,0,.84.84h16.58a.85.85,0,0,0,.84-.84v-73A17.42,17.42,0,0,0,1887.22,0Z" transform="translate(-1813.33)"/><path class="cls-1" d="M2192.75,0h-56.47a17.42,17.42,0,0,0-17.42,17.42V73.89a17.42,17.42,0,0,0,17.42,17.42h56.47a17.42,17.42,0,0,0,17.42-17.42V17.42A17.42,17.42,0,0,0,2192.75,0Zm-.84,69.56a3.49,3.49,0,0,1-3.49,3.49h-47.81a3.49,3.49,0,0,1-3.49-3.49V6.82a.84.84,0,0,1,1.52-.5l3.64,4.9a17.43,17.43,0,0,0,14,7h32.15a3.49,3.49,0,0,1,3.49,3.49Z" transform="translate(-1813.33)"/><path class="cls-1" d="M2040,54.78a17.41,17.41,0,0,0,17.42-17.42V17.42A17.41,17.41,0,0,0,2040,0h-56.46a17.42,17.42,0,0,0-17.42,17.42V73.89a17.42,17.42,0,0,0,17.42,17.42h73a.85.85,0,0,0,.79-1.16l-6.5-16.23a1.4,1.4,0,0,0-1.3-.87h-61.65a3.48,3.48,0,0,1-3.48-3.49V54.78Zm-55.62-11.44V21.75a3.48,3.48,0,0,1,3.48-3.49h47.82a3.48,3.48,0,0,1,3.48,3.49V33a3.48,3.48,0,0,1-3.48,3.48h-32.15a17.41,17.41,0,0,0-14,7l-3.64,4.9a.84.84,0,0,1-1.52-.5Z" transform="translate(-1813.33)"/><path class="cls-1" d="M2345.51,36.52h-52.14a3.48,3.48,0,0,1-3.48-3.48V6.82a.84.84,0,0,1,1.52-.5l3.63,4.9a17.43,17.43,0,0,0,14,7h43.9a1.39,1.39,0,0,0,1.29-.87l6.51-16.23A.85.85,0,0,0,2360,0h-70.9a17.42,17.42,0,0,0-17.43,17.42V37.36a17.42,17.42,0,0,0,17.43,17.42h52.14a3.48,3.48,0,0,1,3.48,3.49V69.56a3.48,3.48,0,0,1-3.48,3.49h-61.65a1.39,1.39,0,0,0-1.3.87l-6.46,16.23a.85.85,0,0,0,.79,1.16h72.94a17.42,17.42,0,0,0,17.42-17.42v-20A17.42,17.42,0,0,0,2345.51,36.52Z" transform="translate(-1813.33)"/></svg>