<svg xmlns="http://www.w3.org/2000/svg" xmlns:xlink="http://www.w3.org/1999/xlink" version="1.1" x="0px" y="0px" viewBox="0 0 52 52" style="enable-background:new 0 0 52 52;" xml:space="preserve"><style type="text/css">
	.st0{fill:#E7E4E1;}
	.st1{fill:#2A3D4F;}
	.st2{fill:none;stroke:#000000;stroke-width:2;stroke-linecap:round;stroke-linejoin:round;stroke-miterlimit:10;}
</style><g><g><path d="M47,39.6811523H5c-0.5522461,0-1-0.4472656-1-1V8.8149414c0-0.5527344,0.4477539-1,1-1h42c0.5522461,0,1,0.4472656,1,1    v29.8662109C48,39.2338867,47.5522461,39.6811523,47,39.6811523z M6,37.6811523h40V9.8149414H6V37.6811523z"/></g><g><path d="M49,9.8149414H3c-0.5522461,0-1-0.4472656-1-1v-2c0-2.2060547,1.7944336-4,4-4h40c2.2055664,0,4,1.7939453,4,4v2    C50,9.3676758,49.5522461,9.8149414,49,9.8149414z M4,7.8149414h44v-1c0-1.1025391-0.8969727-2-2-2H6    c-1.1030273,0-2,0.8974609-2,2V7.8149414z"/></g><g><g><path d="M14.0585938,49.1850586c-0.1538086,0-0.3100586-0.0351563-0.4560547-0.1103516     c-0.4912109-0.2529297-0.6850586-0.8554688-0.4321289-1.3466797l4.8862305-9.5039063     c0.2529297-0.4912109,0.855957-0.6845703,1.3461914-0.4326172c0.4912109,0.2529297,0.6850586,0.8554688,0.4321289,1.3466797     l-4.8862305,9.5039063C14.7714844,48.9868164,14.4213867,49.1850586,14.0585938,49.1850586z"/></g><g><path d="M37.9418945,49.1850586c-0.362793,0-0.7128906-0.1982422-0.8901367-0.5429688l-4.8862305-9.5039063     c-0.2529297-0.4912109-0.059082-1.09375,0.4321289-1.3466797c0.4902344-0.2529297,1.09375-0.0585938,1.3461914,0.4326172     l4.8862305,9.5039063c0.2529297,0.4912109,0.059082,1.09375-0.4321289,1.3466797     C38.2519531,49.1499023,38.0957031,49.1850586,37.9418945,49.1850586z"/></g></g><g><path d="M49,39.6811523H3c-0.5522461,0-1-0.4472656-1-1s0.4477539-1,1-1h46c0.5522461,0,1,0.4472656,1,1    S49.5522461,39.6811523,49,39.6811523z"/></g><g><g><path d="M11.7163086,30.628418c-0.2558594,0-0.5117188-0.0976563-0.7070313-0.2929688     c-0.390625-0.390625-0.390625-1.0234375,0-1.4140625l5.1044922-5.1054688c0.375-0.375,1.0390625-0.375,1.4140625,0     l3.9228516,3.9228516l7.8862305-7.8857422c0.390625-0.390625,1.0234375-0.390625,1.4140625,0l3.0668945,3.0664063     l5.7592773-5.7587891c0.390625-0.390625,1.0234375-0.390625,1.4140625,0s0.390625,1.0234375,0,1.4140625l-6.4663086,6.4658203     c-0.390625,0.390625-1.0234375,0.390625-1.4140625,0l-3.0668945-3.0664063l-7.8862305,7.8857422     c-0.390625,0.390625-1.0234375,0.390625-1.4140625,0l-3.9228516-3.9228516l-4.3974609,4.3984375     C12.2280273,30.5307617,11.972168,30.628418,11.7163086,30.628418z"/></g><g><path d="M40.2841797,22.402832c-0.5522461,0-1-0.4472656-1-1v-2.5351563h-2.5356445c-0.5522461,0-1-0.4472656-1-1     s0.4477539-1,1-1h3.5356445c0.5522461,0,1,0.4472656,1,1v3.5351563     C41.2841797,21.9555664,40.8364258,22.402832,40.2841797,22.402832z"/></g></g></g></svg>