<svg xmlns="http://www.w3.org/2000/svg" xmlns:xlink="http://www.w3.org/1999/xlink" version="1.1" x="0px" y="0px" viewBox="0 0 52 52" style="enable-background:new 0 0 52 52;" xml:space="preserve"><style type="text/css">
	.st0{fill:none;stroke:#000000;stroke-width:2;stroke-miterlimit:10;}
	.st1{fill:none;stroke:#000000;stroke-width:2;stroke-linecap:round;stroke-linejoin:round;stroke-miterlimit:10;}
</style><g><g><path d="M16.8691406,41.9999352h-6c-1.1025391,0-2-0.8969727-2-2v-36c0-1.1030273,0.8974609-2,2-2h6c0.5527344,0,1,0.4477539,1,1    v38C17.8691406,41.5521812,17.421875,41.9999352,16.8691406,41.9999352z M10.8691406,3.9999359v36h5v-36H10.8691406z"/></g><g><path d="M41.1308594,41.9999352H16.8691406c-0.5527344,0-1-0.4477539-1-1v-38c0-0.5522461,0.4472656-1,1-1h24.2617188    c1.1025391,0,2,0.8969727,2,2v36C43.1308594,41.1029625,42.2333984,41.9999352,41.1308594,41.9999352z M17.8691406,39.9999352    h23.2626953l-0.0009766-36H17.8691406V39.9999352z"/></g><g><path d="M23.8691406,49.9999352c-0.1708984,0-0.3427734-0.0439453-0.4960938-0.1318359l-3.0039063-1.7163086l-3.0039063,1.7163086    c-0.3085938,0.1772461-0.6894531,0.1757813-0.9980469-0.003418c-0.3085938-0.1787109-0.4980469-0.5083008-0.4980469-0.8647461v-8    c0-0.5522461,0.4472656-1,1-1h7c0.5527344,0,1,0.4477539,1,1v8c0,0.3564453-0.1894531,0.6860352-0.4980469,0.8647461    C24.2158203,49.9550133,24.0429688,49.9999352,23.8691406,49.9999352z M20.3691406,45.9999352    c0.1708984,0,0.3427734,0.0439453,0.4960938,0.1318359l2.0039063,1.1450195v-5.2768555h-5v5.2768555l2.0039063-1.1450195    C20.0263672,46.0438805,20.1982422,45.9999352,20.3691406,45.9999352z"/></g><g><g><path d="M36.5292969,32.8778648H22.4716797c-0.5527344,0-1-0.4477539-1-1s0.4472656-1,1-1h14.0576172     c0.5527344,0,1,0.4477539,1,1S37.0820313,32.8778648,36.5292969,32.8778648z"/></g><g><path d="M33.5,27.8778648h-8c-0.5527344,0-1-0.4477539-1-1s0.4472656-1,1-1h8c0.5527344,0,1,0.4477539,1,1     S34.0527344,27.8778648,33.5,27.8778648z"/></g><g><path d="M29.5,22.9613609c-0.3164063,0-0.6152344-0.1499023-0.8037109-0.4047852l-0.9501953-1.2817383l-1.5771484,0.2348633     c-0.3193359,0.0483398-0.6308594-0.0581055-0.8544922-0.2822266s-0.3291016-0.5405273-0.2822266-0.8540039l0.234375-1.578125     l-1.2822266-0.9506836c-0.2539063-0.1884766-0.4042969-0.4863281-0.4042969-0.8032227s0.1503906-0.6147461,0.4042969-0.8032227     l1.2822266-0.9506826l-0.234375-1.578125c-0.046875-0.3134766,0.0585938-0.6303711,0.2822266-0.8540039     s0.5351563-0.3286133,0.8544922-0.2822266l1.5771484,0.2348633l0.9501953-1.2817383     c0.3769531-0.5097656,1.2304688-0.5097656,1.6074219,0l0.9501953,1.2822266l1.5791016-0.2348633     c0.3134766-0.046875,0.6298828,0.0585938,0.8535156,0.2822266c0.2236328,0.2241211,0.3291016,0.5405273,0.2822266,0.8540039     l-0.234375,1.5791016l1.28125,0.9497061c0.2539063,0.1884766,0.4042969,0.4863281,0.4042969,0.8032227     s-0.1503906,0.6147461-0.4042969,0.8032227l-1.28125,0.949707l0.234375,1.5791016     c0.046875,0.3134766-0.0585938,0.6303711-0.2822266,0.8540039s-0.5371094,0.3300781-0.8544922,0.2822266l-1.5791016-0.2348633     l-0.9492188,1.28125C30.1152344,22.8114586,29.8164063,22.9613609,29.5,22.9613609z M28.0976563,19.2118492     c0.1308594,0,0.2607422,0.0253906,0.3818359,0.0756836l0.1523438,0.0629883     c0.1679688,0.0693359,0.3134766,0.1831055,0.421875,0.3291016L29.5,20.2821617l0.4462891-0.6025391     c0.1083984-0.1459961,0.2539063-0.2597656,0.421875-0.3291016l0.1523438-0.0629883     c0.1660156-0.0693359,0.3496094-0.0927734,0.5292969-0.0649414l0.7421875,0.1108398l-0.1103516-0.7421875     c-0.03125-0.2138672,0.0068359-0.4223633,0.0986328-0.6015625c0.0615234-0.1938477,0.1816406-0.3706055,0.3574219-0.5009766     l0.6025391-0.4467773L32.1376953,16.59515c-0.1464844-0.1083984-0.2607422-0.2553711-0.3300781-0.4248047l-0.0625-0.152832     c-0.0673828-0.1660147-0.0898438-0.3476553-0.0634766-0.5253897l0.1103516-0.7416992l-0.7431641,0.1103516     c-0.1806641,0.0263672-0.3642578,0.0043945-0.53125-0.0664063l-0.1523438-0.0634766     c-0.1660156-0.0693359-0.3115234-0.1826172-0.4189453-0.3276367L29.5,13.8007174l-0.4462891,0.6025391     c-0.1074219,0.1450195-0.2529297,0.2583008-0.4189453,0.3276367l-0.1523438,0.0634766     c-0.1679688,0.0708008-0.3515625,0.0927734-0.5322266,0.0664063l-0.7412109-0.1103516l0.1103516,0.7416992     c0.0263672,0.1796875,0.0039063,0.3637695-0.0664063,0.5317373l-0.0634766,0.1523438     c-0.0693359,0.1665039-0.1826172,0.3110352-0.3271484,0.418457l-0.6025391,0.4467773l0.6025391,0.4467773     c0.1455078,0.1074219,0.2587891,0.2524414,0.328125,0.4194336l0.0634766,0.152832     c0.0693359,0.1679688,0.0917969,0.3510742,0.0654297,0.5307617l-0.1103516,0.7416992l0.7412109-0.1103516     C27.9990234,19.2152672,28.0488281,19.2118492,28.0976563,19.2118492z"/></g></g></g></svg>