<svg xmlns="http://www.w3.org/2000/svg" xmlns:xlink="http://www.w3.org/1999/xlink" version="1.1" x="0px" y="0px" viewBox="0 0 52 52" style="enable-background:new 0 0 52 52;" xml:space="preserve"><style type="text/css">
	.st0{fill:none;stroke:#000000;stroke-width:2;stroke-miterlimit:10;}
	.st1{fill:none;stroke:#000000;stroke-width:2;stroke-linecap:round;stroke-linejoin:round;stroke-miterlimit:10;}
</style><g><g><path d="M22,50H8c-1.1030273,0-2-0.8969727-2-2V4c0-1.1030273,0.8969727-2,2-2h14c1.1030273,0,2,0.8969727,2,2v44    C24,49.1030273,23.1030273,50,22,50z M8,4v44h14.0014648L22,4H8z"/></g><g><path d="M15,45.2739258c-2.7568359,0-5-2.2431641-5-5s2.2431641-5,5-5s5,2.2431641,5,5S17.7568359,45.2739258,15,45.2739258z     M15,37.2739258c-1.6542969,0-3,1.3457031-3,3s1.3457031,3,3,3s3-1.3457031,3-3S16.6542969,37.2739258,15,37.2739258z"/></g><g><g><rect x="11" y="30.7260742" width="8" height="2"/></g><g><rect x="11" y="25.7260742" width="8" height="2"/></g><g><rect x="11" y="20.7260742" width="8" height="2"/></g></g><g><path d="M17,17.7260742h-4c-1.1030273,0-2-0.8969727-2-2v-7c0-1.1030273,0.8969727-2,2-2h4c1.1030273,0,2,0.8969727,2,2v7    C19,16.8291016,18.1030273,17.7260742,17,17.7260742z M13,8.7260742v7h4.0014648l-0.0014648-7H13z"/></g><g><path d="M44,50H30c-1.1030273,0-2-0.8969727-2-2V4c0-1.1030273,0.8969727-2,2-2h14c1.1030273,0,2,0.8969727,2,2v44    C46,49.1030273,45.1030273,50,44,50z M30,4v44h14.0014648L44,4H30z"/></g><g><path d="M37,45.2739258c-2.7568359,0-5-2.2431641-5-5s2.2431641-5,5-5s5,2.2431641,5,5S39.7568359,45.2739258,37,45.2739258z     M37,37.2739258c-1.6542969,0-3,1.3457031-3,3s1.3457031,3,3,3s3-1.3457031,3-3S38.6542969,37.2739258,37,37.2739258z"/></g><g><g><rect x="33" y="30.7260742" width="8" height="2"/></g><g><rect x="33" y="25.7260742" width="8" height="2"/></g><g><rect x="33" y="20.7260742" width="8" height="2"/></g></g><g><path d="M39,17.7260742h-4c-1.1030273,0-2-0.8969727-2-2v-7c0-1.1030273,0.8969727-2,2-2h4c1.1030273,0,2,0.8969727,2,2v7    C41,16.8291016,40.1030273,17.7260742,39,17.7260742z M35,8.7260742v7h4.0014648l-0.0014648-7H35z"/></g></g></svg>