<svg xmlns="http://www.w3.org/2000/svg" xmlns:xlink="http://www.w3.org/1999/xlink" version="1.1" x="0px" y="0px" viewBox="0 0 52 52" style="enable-background:new 0 0 52 52;" xml:space="preserve"><style type="text/css">
	.st0{fill:none;stroke:#000000;stroke-width:2;stroke-linecap:round;stroke-linejoin:round;stroke-miterlimit:10;}
</style><g><g><g><path d="M26,12.2436523c-2.512207,0-4.5556641-2.0439453-4.5556641-4.5556641S23.487793,3.1323242,26,3.1323242     s4.5556641,2.0439453,4.5556641,4.5556641S28.512207,12.2436523,26,12.2436523z M26,5.1323242     c-1.4091797,0-2.5556641,1.1464844-2.5556641,2.5556641S24.5908203,10.2436523,26,10.2436523     s2.5556641-1.1464844,2.5556641-2.5556641S27.4091797,5.1323242,26,5.1323242z"/></g><g><path d="M32,24.7270508H20c-1.6542969,0-3-1.3457031-3-3v-5.4833984c0-3.3085938,2.6914063-6,6-6h6c3.3085938,0,6,2.6914063,6,6     v5.4833984C35,23.3813477,33.6542969,24.7270508,32,24.7270508z M23,12.2436523c-2.2055664,0-4,1.7939453-4,4v5.4833984     c0,0.5517578,0.4487305,1,1,1h12c0.5512695,0,1-0.4482422,1-1v-5.4833984c0-2.2060547-1.7944336-4-4-4H23z"/></g></g><g><g><path d="M10.3886719,38.3374023c-2.3618164,0-4.2836914-1.921875-4.2836914-4.2841797s1.921875-4.2841797,4.2836914-4.2841797     c2.3623047,0,4.2841797,1.921875,4.2841797,4.2841797S12.7509766,38.3374023,10.3886719,38.3374023z M10.3886719,31.769043     c-1.2592773,0-2.2836914,1.0244141-2.2836914,2.2841797s1.0244141,2.2841797,2.2836914,2.2841797     s2.2841797-1.0244141,2.2841797-2.2841797S11.6479492,31.769043,10.3886719,31.769043z"/></g><g><path d="M15.777832,48.8676758H5c-1.6542969,0-3-1.3457031-3-3v-3.5302734c0-3.3085938,2.6914063-6,6-6h4.777832     c3.3085938,0,6,2.6914063,6,6v3.5302734C18.777832,47.5219727,17.4321289,48.8676758,15.777832,48.8676758z M8,38.3374023     c-2.2055664,0-4,1.7939453-4,4v3.5302734c0,0.5517578,0.4487305,1,1,1h10.777832c0.5512695,0,1-0.4482422,1-1v-3.5302734     c0-2.2060547-1.7944336-4-4-4H8z"/></g><g><path d="M41.6113281,38.3374023c-2.3623047,0-4.2841797-1.921875-4.2841797-4.2841797s1.921875-4.2841797,4.2841797-4.2841797     c2.3618164,0,4.2836914,1.921875,4.2836914,4.2841797S43.9731445,38.3374023,41.6113281,38.3374023z M41.6113281,31.769043     c-1.2592773,0-2.2841797,1.0244141-2.2841797,2.2841797s1.0249023,2.2841797,2.2841797,2.2841797     s2.2836914-1.0244141,2.2836914-2.2841797S42.8706055,31.769043,41.6113281,31.769043z"/></g><g><path d="M47,48.8676758H36.222168c-1.6542969,0-3-1.3457031-3-3v-3.5302734c0-3.3085938,2.6914063-6,6-6H44     c3.3085938,0,6,2.6914063,6,6v3.5302734C50,47.5219727,48.6542969,48.8676758,47,48.8676758z M39.222168,38.3374023     c-2.2055664,0-4,1.7939453-4,4v3.5302734c0,0.5517578,0.4487305,1,1,1H47c0.5512695,0,1-0.4482422,1-1v-3.5302734     c0-2.2060547-1.7944336-4-4-4H39.222168z"/></g></g><g><path d="M10.3886719,26.769043c-0.5522461,0-1-0.4472656-1-1v-9.3242188c0-0.5527344,0.4477539-1,1-1H18    c0.5522461,0,1,0.4472656,1,1s-0.4477539,1-1,1h-6.6113281v8.3242188    C11.3886719,26.3217773,10.940918,26.769043,10.3886719,26.769043z"/></g><g><path d="M10.3886719,26.769043c-0.2939453,0-0.5732422-0.1298828-0.7631836-0.3535156l-2.75-3.2490234    c-0.3569336-0.421875-0.3041992-1.0527344,0.1171875-1.4101563c0.421875-0.3544922,1.0527344-0.3027344,1.4091797,0.1171875    l1.9868164,2.3476563l1.9868164-2.3476563c0.3564453-0.4228516,0.9873047-0.4736328,1.4091797-0.1181641    c0.4213867,0.3574219,0.4741211,0.9882813,0.1171875,1.4091797l-2.75,3.25    C10.9619141,26.6391602,10.6831055,26.769043,10.3886719,26.769043z"/></g><g><path d="M41.6113281,26.769043c-0.5522461,0-1-0.4472656-1-1v-8.3242188H34c-0.5522461,0-1-0.4472656-1-1s0.4477539-1,1-1    h7.6113281c0.5522461,0,1,0.4472656,1,1v9.3242188C42.6113281,26.3217773,42.1635742,26.769043,41.6113281,26.769043z"/></g><g><path d="M41.6113281,26.769043L41.6113281,26.769043c-0.2944336,0-0.5732422-0.1298828-0.7631836-0.3544922l-2.75-3.25    c-0.3569336-0.4208984-0.3041992-1.0517578,0.1171875-1.4091797c0.4223633-0.3554688,1.0527344-0.3046875,1.4091797,0.1181641    l1.9868164,2.3476563l1.9868164-2.3476563c0.3564453-0.421875,0.9873047-0.4726563,1.4091797-0.1171875    c0.4213867,0.3574219,0.4741211,0.9882813,0.1171875,1.4101563l-2.75,3.2490234    C42.1845703,26.6391602,41.9052734,26.769043,41.6113281,26.769043z"/></g></g></svg>