<svg xmlns="http://www.w3.org/2000/svg" xmlns:xlink="http://www.w3.org/1999/xlink" version="1.1" x="0px" y="0px" viewBox="0 0 52 52" style="enable-background:new 0 0 52 52;" xml:space="preserve"><style type="text/css">
	.st0{fill:none;stroke:#000000;stroke-width:2;stroke-miterlimit:10;}
	.st1{fill:none;stroke:#000000;stroke-width:2;stroke-linecap:round;stroke-linejoin:round;stroke-miterlimit:10;}
</style><g><g><path d="M25.9995117,49.9890137c-0.0410156,0-0.0820313-0.0029297-0.1230469-0.0078125    C8.097168,47.776123,5.394043,11.7409668,5.2875977,10.2077637c-0.0234375-0.3505859,0.1376953-0.6875,0.4248047-0.8886719    c0.2880859-0.2011719,0.6611328-0.2382813,0.9804688-0.09375c9.8662109,4.4003906,18.4228516-6.7246094,18.5078125-6.8378906    c0.3789063-0.5019531,1.21875-0.5019531,1.5976563,0c0.0849609,0.1123047,8.6425781,11.2421875,18.5087891,6.8378906    c0.3193359-0.1445313,0.6923828-0.1074219,0.9804688,0.09375c0.2871094,0.2011719,0.4482422,0.5380859,0.4248047,0.8886719    c-0.1064453,1.5332031-2.8105469,37.5683594-20.5898438,39.7734375    C26.081543,49.986084,26.0405273,49.9890137,25.9995117,49.9890137z M7.4291992,11.6413574    c0.7246094,6.9296875,4.4863281,34.4345703,18.5703125,36.3388672    c14.0917969-1.9052734,17.8476563-29.4091797,18.5712891-36.3388672    c-8.7675781,2.7626953-16.1904297-4.4287109-18.5712891-7.1005859    C23.6186523,7.2116699,16.2006836,14.4089355,7.4291992,11.6413574z"/></g><g><path d="M25.9995117,37.5007324c-6.3476563,0-11.5117188-5.1640625-11.5117188-11.5117188    s5.1640625-11.5117188,11.5117188-11.5117188s11.5117188,5.1640625,11.5117188,11.5117188    S32.347168,37.5007324,25.9995117,37.5007324z M25.9995117,16.4772949c-5.2451172,0-9.5117188,4.2666016-9.5117188,9.5117188    s4.2666016,9.5117188,9.5117188,9.5117188s9.5117188-4.2666016,9.5117188-9.5117188S31.2446289,16.4772949,25.9995117,16.4772949z    "/></g><g><path d="M24.2836914,30.1501465c-0.2382813,0-0.4755859-0.0839844-0.6660156-0.2539063l-3.3417969-2.9804688    c-0.4121094-0.3671875-0.4482422-1-0.0800781-1.4121094s1-0.4462891,1.4121094-0.0800781l2.6601563,2.3730469l6.1074219-5.7001953    c0.4052734-0.3769531,1.0371094-0.3554688,1.4140625,0.0488281c0.3759766,0.4042969,0.3544922,1.0371094-0.0488281,1.4140625    l-6.7744141,6.3222656C24.7739258,30.0603027,24.5288086,30.1501465,24.2836914,30.1501465z"/></g></g></svg>